<svg xmlns="http://www.w3.org/2000/svg" fill="none" viewBox="0 0 10 10"><path fill="#fff" fill-rule="evenodd" d="M5.838 6.468a1.88 1.88 0 0 0 1.037-1.676V1.875a1.875 1.875 0 1 0-3.75 0v1.88zm-.548.176L3.125 4.479v.313A1.877 1.877 0 0 0 5.29 6.644M2.505 3.859v.935a2.5 2.5 0 0 0 3.303 2.368l.637.637c-.293.141-.608.24-.935.29a.104.104 0 0 0-.088.103v1.394a.417.417 0 1 1-.833 0V8.192A.104.104 0 0 0 4.5 8.09a3.34 3.34 0 0 1-2.828-3.295V3.753a.42.42 0 0 1 .32-.406zm4.398 3.674-.601-.601a2.5 2.5 0 0 0 1.203-2.138V3.753a.417.417 0 0 1 .834 0v1.041a3.34 3.34 0 0 1-1.436 2.739" clip-rule="evenodd"/><path stroke="#fff" stroke-linecap="round" stroke-width=".512" d="m.5.5 9 9"/></svg>