<svg xmlns="http://www.w3.org/2000/svg" fill="none" viewBox="0 0 704 336"><rect width="704" height="336" fill="#18191B" rx="10"/><mask id="code_svg__c" width="704" height="336" x="0" y="0" maskUnits="userSpaceOnUse" style="mask-type:alpha"><rect width="704" height="336" fill="#18191B" rx="10"/></mask><g filter="url(#code_svg__a)" mask="url(#code_svg__c)" opacity=".18"><ellipse cx="551.5" cy="64.5" fill="#E3B3E1" rx="231.5" ry="213.5"/></g><rect width="36" height="36" x="650" y="19" fill="#fff" fill-opacity=".1" rx="5"/><rect width="10" height="10" x="666.875" y="35.875" stroke="#fff" stroke-width="1.75" rx="1.25"/><path fill="#fff" fill-rule="evenodd" d="M662.125 29A2.125 2.125 0 0 0 660 31.125v7.5c0 1.174.951 2.125 2.125 2.125H663a.875.875 0 0 0 0-1.75h-.875a.375.375 0 0 1-.375-.375v-7.5c0-.207.168-.375.375-.375h7.5c.207 0 .375.168.375.375V32a.875.875 0 0 0 1.75 0v-.875A2.125 2.125 0 0 0 669.625 29z" clip-rule="evenodd"/><path fill="#6599FF" d="M33.36 49v-1.312h3.12v-6.176h-2.72V40.2h4.16v7.488h2.96V49zm3.68-10.384q-.529 0-.832-.272-.304-.272-.304-.736 0-.48.304-.752.304-.288.832-.288c.528 0 .63.096.832.288q.304.272.304.752 0 .465-.304.736-.304.272-.832.272M43.066 49v-8.8h1.44v1.68h.304l-.304.336q0-1.04.624-1.6.624-.576 1.728-.576 1.328 0 2.112.816.783.816.784 2.224V49h-1.44v-5.76q0-.945-.512-1.44-.495-.512-1.36-.512-.896 0-1.424.544-.512.544-.512 1.568V49zm13.881 0q-1.135 0-1.776-.608-.623-.608-.623-1.712v-5.168h-2.48V40.2h2.48v-2.48h1.44v2.48h3.52v1.312h-3.52v5.168q0 1.008.96 1.008h2.4V49zm8.634.16q-1.04 0-1.824-.416a3 3 0 0 1-1.2-1.168q-.416-.768-.416-1.776v-2.4q0-1.024.416-1.776a3 3 0 0 1 1.2-1.168q.784-.416 1.824-.416t1.808.416q.785.416 1.2 1.168.432.752.432 1.776v1.552H63.55v.848q0 1.04.528 1.6.529.544 1.504.544.833 0 1.344-.288.513-.304.624-.896h1.44q-.144 1.104-1.088 1.76-.927.64-2.32.64Zm2.032-5.168V43.4q0-1.04-.528-1.6-.511-.56-1.504-.56-.976 0-1.504.56t-.528 1.6v.464h4.176zM72.151 49v-8.8h1.408v1.68h.336l-.464 1.04q0-1.425.608-2.144.624-.736 1.84-.736 1.392 0 2.208.88.832.864.832 2.352v.528h-1.44v-.4q0-1.04-.512-1.584-.495-.56-1.424-.56-.912 0-1.44.56-.512.56-.512 1.584V49zm11.338 0v-6.608h-2.56V41.08h2.56v-1.52q0-1.04.656-1.632.656-.608 1.808-.608h2.576v1.312h-2.576q-.496 0-.768.24-.255.225-.256.688v1.52h3.6v1.312h-3.6V49zm10.105.16q-1.391 0-2.191-.704-.8-.72-.8-1.936 0-1.232.8-1.936.8-.705 2.16-.704h2.72V43q0-.816-.496-1.248-.48-.448-1.377-.448-.784 0-1.311.336-.529.32-.609.88h-1.44a2.54 2.54 0 0 1 1.073-1.808q.927-.672 2.32-.672 1.52 0 2.4.784t.88 2.128V49h-1.409v-1.68h-.24l.24-.24q0 .96-.751 1.52-.736.56-1.969.56m.353-1.136q1.023 0 1.68-.512.656-.512.656-1.312v-1.248h-2.689q-.72 0-1.135.4-.417.4-.416 1.088 0 .736.495 1.168.513.416 1.409.416m10.073 1.136q-1.055 0-1.856-.4a2.9 2.9 0 0 1-1.216-1.152q-.432-.768-.432-1.808v-2.4q0-1.056.432-1.808a2.9 2.9 0 0 1 1.216-1.152q.8-.4 1.856-.4 1.521 0 2.448.816.928.816.976 2.224h-1.44q-.048-.847-.576-1.296-.511-.464-1.408-.464-.943 0-1.504.544-.56.528-.56 1.52V45.8q0 .991.56 1.536.56.544 1.504.544.897 0 1.408-.464.528-.464.576-1.296h1.44q-.048 1.408-.976 2.224t-2.448.816m9.53 0q-1.04 0-1.824-.416a3 3 0 0 1-1.2-1.168q-.416-.768-.416-1.776v-2.4q0-1.024.416-1.776a3 3 0 0 1 1.2-1.168q.784-.416 1.824-.416t1.808.416q.784.416 1.2 1.168.432.752.432 1.776v1.552h-5.472v.848q0 1.04.528 1.6.528.544 1.504.544.833 0 1.344-.288.512-.304.624-.896h1.44q-.144 1.104-1.088 1.76-.928.64-2.32.64m2.032-5.168V43.4q0-1.04-.528-1.6-.512-.56-1.504-.56-.976 0-1.504.56t-.528 1.6v.464h4.176zM36.864 159.16q-1.056 0-1.856-.4a2.9 2.9 0 0 1-1.216-1.152q-.432-.768-.432-1.808v-2.4q0-1.056.432-1.808a2.9 2.9 0 0 1 1.216-1.152q.8-.4 1.856-.4 1.52 0 2.448.816t.976 2.224h-1.44q-.048-.847-.576-1.296-.511-.464-1.408-.464-.944 0-1.504.544-.56.528-.56 1.52v2.416q0 .992.56 1.536t1.504.544q.896 0 1.408-.464.528-.464.576-1.296h1.44q-.048 1.408-.976 2.224t-2.448.816m9.53-.032q-1.056 0-1.824-.4a2.9 2.9 0 0 1-1.2-1.152q-.416-.768-.416-1.808v-2.336q0-1.056.416-1.808a2.9 2.9 0 0 1 1.2-1.152q.768-.4 1.824-.4c1.056 0 1.312.133 1.824.4s.906.651 1.184 1.152q.432.752.432 1.792v2.352q0 1.04-.432 1.808a2.8 2.8 0 0 1-1.184 1.152q-.768.4-1.824.4m0-1.28q.945 0 1.472-.528.528-.528.528-1.552v-2.336q0-1.024-.528-1.552t-1.472-.528q-.929 0-1.472.528-.528.528-.528 1.552v2.336q0 1.024.528 1.552.543.528 1.472.528M52.66 159v-8.8h1.44v1.68h.303l-.303.336q0-1.04.623-1.6.624-.576 1.729-.576 1.328 0 2.111.816t.784 2.224V159h-1.44v-5.76q0-.943-.511-1.44-.497-.512-1.36-.512-.896 0-1.425.544-.51.544-.511 1.568v5.6zm12.65.128q-.896 0-1.569-.272a2.7 2.7 0 0 1-1.056-.8 2.44 2.44 0 0 1-.464-1.216h1.44q.096.464.512.736.432.272 1.136.272h.672q.849 0 1.264-.336.416-.352.416-.928 0-.56-.384-.88-.368-.336-1.104-.448l-1.184-.192q-1.297-.224-1.936-.8-.624-.592-.624-1.712 0-1.183.752-1.824.753-.656 2.256-.656h.608q1.264 0 2.032.592t.928 1.6h-1.44a1.02 1.02 0 0 0-.48-.656q-.383-.256-1.04-.256h-.608q-.816 0-1.2.304-.368.304-.368.912 0 .544.32.8.321.256 1.008.368l1.184.192q1.425.224 2.064.832.656.608.656 1.76 0 1.216-.784 1.92-.767.688-2.336.688h-.672ZM76.134 159q-1.136 0-1.776-.608-.624-.608-.624-1.712v-5.168h-2.48V150.2h2.48v-2.48h1.44v2.48h3.52v1.312h-3.52v5.168q0 1.008.96 1.008h2.4V159zm-39.27 110.16q-1.056 0-1.856-.4a2.9 2.9 0 0 1-1.216-1.152q-.432-.768-.432-1.808v-2.4q0-1.056.432-1.808a2.9 2.9 0 0 1 1.216-1.152q.8-.4 1.856-.4 1.52 0 2.448.816t.976 2.224h-1.44q-.048-.848-.576-1.296-.511-.464-1.408-.464-.944 0-1.504.544-.56.528-.56 1.52v2.416q0 .991.56 1.536.56.544 1.504.544.896 0 1.408-.464.528-.463.576-1.296h1.44q-.048 1.408-.976 2.224t-2.448.816m9.53-.032q-1.056 0-1.824-.4a2.9 2.9 0 0 1-1.2-1.152q-.416-.768-.416-1.808v-2.336q0-1.056.416-1.808a2.9 2.9 0 0 1 1.2-1.152q.768-.4 1.824-.4c1.056 0 1.312.133 1.824.4s.906.651 1.184 1.152q.432.752.432 1.792v2.352q0 1.04-.432 1.808a2.8 2.8 0 0 1-1.184 1.152q-.768.4-1.824.4m0-1.28q.944 0 1.472-.528t.528-1.552v-2.336q0-1.024-.528-1.552t-1.472-.528q-.929 0-1.472.528-.528.528-.528 1.552v2.336q0 1.024.528 1.552.543.528 1.472.528M52.66 269v-8.8h1.44v1.68h.303l-.303.336q0-1.04.623-1.6.624-.576 1.729-.576 1.328 0 2.111.816t.784 2.224V269h-1.44v-5.76q0-.943-.511-1.44-.497-.512-1.36-.512-.896 0-1.425.544-.51.544-.511 1.568v5.6zm12.65.128q-.896 0-1.569-.272a2.7 2.7 0 0 1-1.056-.8 2.44 2.44 0 0 1-.464-1.216h1.44q.096.464.512.736.432.272 1.136.272h.672q.849 0 1.264-.336.416-.352.416-.928 0-.56-.384-.88-.368-.336-1.104-.448l-1.184-.192q-1.297-.224-1.936-.8-.624-.592-.624-1.712 0-1.183.752-1.824.753-.656 2.256-.656h.608q1.264 0 2.032.592t.928 1.6h-1.44a1.02 1.02 0 0 0-.48-.656q-.383-.256-1.04-.256h-.608q-.816 0-1.2.304-.368.304-.368.912 0 .544.32.8.321.256 1.008.368l1.184.192q1.425.224 2.064.832.656.608.656 1.76 0 1.216-.784 1.92-.767.688-2.336.688h-.672ZM76.134 269q-1.136 0-1.776-.608-.624-.608-.624-1.712v-5.168h-2.48V260.2h2.48v-2.48h1.44v2.48h3.52v1.312h-3.52v5.168q0 1.008.96 1.008h2.4V269z"/><path fill="#fff" d="M183.426 50.76q-.943 0-1.632-.32a2.2 2.2 0 0 1-1.024-.912q-.352-.593-.304-1.424l.16-2.624q.048-.847-.256-1.216-.303-.384-1.344-.384h-1.76V42.6h1.76q1.041 0 1.344-.368.304-.384.256-1.232l-.16-2.624q-.048-.848.304-1.44a2.22 2.22 0 0 1 1.024-.896q.688-.32 1.632-.32h.72V37h-.72q-.751 0-1.152.352-.4.336-.368 1.024l.16 2.624q.065 1.04-.496 1.664-.56.608-1.584.608v-.08q1.008 0 1.568.624.576.623.512 1.664l-.16 2.624q-.031.688.368 1.024.4.352 1.152.352h.72v1.28zM113.55 64.44q-.592 0-.96-.32-.368-.336-.368-.88c0-.544.123-.65.368-.864q.368-.336.96-.336.608 0 .96.336.368.32.368.864c0 .544-.123.656-.368.88q-.353.32-.96.32m0 6.72q-.592 0-.96-.32-.368-.336-.368-.88c0-.544.123-.65.368-.864q.368-.336.96-.336.608 0 .96.336.368.32.368.864c0 .544-.123.656-.368.88q-.353.32-.96.32m74.67 2.4 1.28-4.976h2.08l-2.08 4.976zm1.92-9.12q-.528 0-.864-.336t-.336-.864a1.176 1.176 0 0 1 1.2-1.2h.32q.512 0 .848.352.352.336.352.848 0 .528-.336.864t-.864.336zm-86.184 22q-.591 0-.96-.32-.368-.336-.368-.88c0-.544.123-.65.368-.864q.369-.336.96-.336.609 0 .96.336.368.32.368.864c0 .544-.122.656-.368.88q-.351.32-.96.32m0 6.72q-.591 0-.96-.32-.368-.336-.368-.88c0-.544.123-.65.368-.864q.369-.336.96-.336.609 0 .96.336.368.32.368.864c0 .544-.122.656-.368.88q-.351.32-.96.32m74.67 2.4 1.28-4.976h2.08l-2.08 4.976zm1.92-9.12q-.528 0-.864-.336t-.336-.864a1.176 1.176 0 0 1 1.2-1.2h.32q.512 0 .848.352.352.336.352.848 0 .528-.336.864t-.864.336zM33.36 116.76v-1.28h.72q.751 0 1.152-.352.4-.336.368-1.024l-.16-2.624q-.064-1.04.496-1.664.576-.624 1.584-.624v.08q-1.024 0-1.584-.608-.56-.624-.496-1.664l.16-2.624q.032-.688-.368-1.024-.4-.352-1.152-.352h-.72v-1.28h.72q.945 0 1.616.32.688.304 1.04.896c.352.592.336.875.304 1.44L36.88 107q-.048.848.256 1.232.304.368 1.344.368h1.76v1.28h-1.76q-1.024 0-1.344.384-.304.368-.256 1.216l.16 2.624q.047.832-.304 1.424a2.2 2.2 0 0 1-1.04.912q-.672.32-1.616.32zm108.971 35.68q-.591 0-.96-.32-.368-.336-.368-.88c0-.544.123-.651.368-.864q.369-.336.96-.336.609 0 .96.336.368.32.368.864c0 .544-.122.656-.368.88q-.351.32-.96.32m0 6.72q-.591 0-.96-.32-.368-.336-.368-.88c0-.544.123-.651.368-.864q.369-.336.96-.336.609 0 .96.336.368.32.368.864c0 .544-.122.656-.368.88q-.351.32-.96.32m56.043 1.6v-15.04h3.92V147h-2.48v12.48h2.48v1.28zm8.714 0v-1.28h2.48V147h-2.48v-1.28h3.92v15.04zm18.147-8.32v-1.28h6.88v1.28zm0 3.84V155h6.88v1.28zm21.108 4.48v-15.04h3.92V147h-2.48v12.48h2.48v1.28zm-168.448 22q-.944 0-1.632-.32a2.2 2.2 0 0 1-1.024-.912q-.352-.592-.304-1.424l.16-2.624q.048-.848-.256-1.216-.304-.384-1.344-.384h-1.76v-1.28h1.76q1.04 0 1.344-.368.304-.384.256-1.232l-.16-2.624q-.047-.847.304-1.44a2.2 2.2 0 0 1 1.024-.896q.689-.32 1.632-.32h.72V169h-.72q-.752 0-1.152.352-.4.336-.368 1.024l.16 2.624q.064 1.04-.496 1.664-.56.608-1.584.608v-.08q1.008 0 1.568.624.576.624.512 1.664l-.16 2.624q-.032.688.368 1.024.4.352 1.152.352h.72v1.28zm54.843-8.32q-.593 0-.96-.32-.368-.336-.368-.88c0-.544.122-.651.368-.864q.367-.336.96-.336.608 0 .96.336.368.32.368.864c0 .544-.123.656-.368.88q-.352.32-.96.32m0 6.72q-.593 0-.96-.32-.368-.336-.368-.88c0-.544.122-.651.368-.864q.367-.336.96-.336.608 0 .96.336.368.32.368.864c0 .544-.123.656-.368.88q-.352.32-.96.32m20.227-7.04-.192-3.36v-1.44h1.552v1.44l-.176 3.36zm-3.248 0-.192-3.36v-1.44h1.552v1.44l-.176 3.36zm60.811 0-.192-3.36v-1.44h1.552v1.44l-.176 3.36zm-3.248 0-.192-3.36v-1.44h1.552v1.44l-.176 3.36zm9.641 9.44 1.28-4.976h2.08l-2.08 4.976zm50.129-9.12q-.592 0-.96-.32-.368-.336-.368-.88c0-.544.123-.651.368-.864q.368-.336.96-.336.608 0 .96.336.368.32.368.864c0 .544-.123.656-.368.88q-.352.32-.96.32m0 6.72q-.592 0-.96-.32-.368-.336-.368-.88c0-.544.123-.651.368-.864q.368-.336.96-.336.608 0 .96.336.368.32.368.864c0 .544-.123.656-.368.88q-.352.32-.96.32m44.529 1.6v-1.28h.72q.752 0 1.152-.352.4-.336.368-1.024l-.16-2.624q-.065-1.04.496-1.664.576-.624 1.584-.624v.08q-1.025 0-1.584-.608-.56-.624-.496-1.664l.16-2.624q.031-.688-.368-1.024-.4-.352-1.152-.352h-.72v-1.28h.72q.944 0 1.616.32.687.304 1.04.896.351.593.304 1.44l-.16 2.624q-.048.848.256 1.232.303.368 1.344.368h1.76v1.28h-1.76q-1.024 0-1.344.384-.304.368-.256 1.216l.16 2.624q.048.832-.304 1.424a2.2 2.2 0 0 1-1.04.912q-.672.32-1.616.32zm10.874.8 1.28-4.976h2.08l-2.08 4.976zm-244.558 21.2q-.944 0-1.632-.32a2.2 2.2 0 0 1-1.024-.912q-.352-.592-.304-1.424l.16-2.624q.048-.848-.256-1.216-.304-.384-1.344-.384h-1.76v-1.28h1.76q1.04 0 1.344-.368.304-.384.256-1.232l-.16-2.624q-.047-.847.304-1.44a2.2 2.2 0 0 1 1.024-.896q.689-.32 1.632-.32h.72V191h-.72q-.752 0-1.152.352-.4.336-.368 1.024l.16 2.624q.064 1.04-.496 1.664-.56.608-1.584.608v-.08q1.008 0 1.568.624.576.624.512 1.664l-.16 2.624q-.032.688.368 1.024.4.352 1.152.352h.72v1.28zm54.843-8.32q-.593 0-.96-.32-.369-.336-.368-.88c.001-.544.122-.651.368-.864q.368-.336.96-.336.607 0 .96.336.368.32.368.864c0 .544-.123.656-.368.88q-.353.32-.96.32m0 6.72q-.593 0-.96-.32-.369-.336-.368-.88c.001-.544.122-.651.368-.864q.368-.336.96-.336.607 0 .96.336.368.32.368.864c0 .544-.123.656-.368.88q-.353.32-.96.32m20.227-7.04-.192-3.36v-1.44h1.552v1.44l-.176 3.36zm-3.248 0-.192-3.36v-1.44h1.552v1.44l-.176 3.36zm41.623 0-.192-3.36v-1.44h1.552v1.44l-.176 3.36zm-3.248 0-.192-3.36v-1.44h1.552v1.44l-.176 3.36zm9.642 9.44 1.28-4.976h2.08l-2.08 4.976zm50.129-9.12q-.593 0-.96-.32-.369-.336-.368-.88c.001-.544.122-.651.368-.864q.368-.336.96-.336.607 0 .96.336.368.32.368.864c0 .544-.123.656-.368.88q-.353.32-.96.32m0 6.72q-.593 0-.96-.32-.369-.336-.368-.88c.001-.544.122-.651.368-.864q.368-.336.96-.336.607 0 .96.336.368.32.368.864c0 .544-.123.656-.368.88q-.353.32-.96.32m44.528 1.6v-1.28h.72q.753 0 1.152-.352.4-.336.368-1.024l-.16-2.624q-.063-1.04.496-1.664.576-.624 1.584-.624v.08q-1.023 0-1.584-.608-.56-.624-.496-1.664l.16-2.624q.033-.688-.368-1.024-.399-.352-1.152-.352h-.72v-1.28h.72q.945 0 1.616.32.689.304 1.04.896t.304 1.44l-.16 2.624q-.048.848.256 1.232.305.368 1.344.368h1.76v1.28h-1.76q-1.023 0-1.344.384-.303.368-.256 1.216l.16 2.624q.048.832-.304 1.424a2.18 2.18 0 0 1-1.04.912q-.671.32-1.616.32zm10.874.8 1.28-4.976h2.08l-2.08 4.976zM34.4 226.76v-1.28h2.48V213H34.4v-1.28h3.92v15.04zm9.914.8 1.28-4.976h2.08l-2.08 4.976zm1.92-9.12q-.528 0-.864-.336t-.336-.864q0-.512.336-.848.351-.352.864-.352h.32q.512 0 .848.352.352.336.352.848 0 .528-.336.864t-.864.336zM93.082 269v-6.608h-2.56v-1.312h2.56v-1.52q0-1.04.657-1.632.656-.608 1.807-.608h2.576v1.312h-2.576q-.495 0-.768.24-.256.224-.256.688v1.52h3.6v1.312h-3.6V269zm7.434 0v-1.312h3.12v-6.176h-2.72V260.2h4.16v7.488h2.96V269zm3.68-10.384q-.528 0-.832-.272t-.304-.736q0-.48.304-.752.304-.288.832-.288c.528 0 .63.096.832.288q.304.272.304.752 0 .464-.304.736t-.832.272M110.222 269v-8.8h1.44v1.68h.304l-.304.336q0-1.04.624-1.6.624-.576 1.728-.576 1.328 0 2.112.816t.784 2.224V269h-1.44v-5.76q0-.943-.512-1.44-.496-.512-1.36-.512-.896 0-1.424.544-.512.544-.512 1.568v5.6zm12.41.16q-1.312 0-2.128-.88-.8-.88-.8-2.384v-2.576q0-1.52.8-2.4t2.128-.88q1.087 0 1.744.592.656.592.656 1.584l-.288-.336h.32l-.032-2v-2.56h1.44V269h-1.44v-1.68h-.288l.288-.336q0 1.008-.656 1.6-.657.576-1.744.576m.48-1.248q.895 0 1.408-.56t.512-1.552v-2.4q0-.992-.512-1.552-.513-.56-1.408-.56-.912 0-1.44.544t-.528 1.568v2.4q0 1.024.528 1.568t1.44.544m9.626 1.248q-1.632 0-2.496-.896-.864-.912-.864-2.464v-8.48h1.44v8.48q0 .96.464 1.52.48.56 1.456.56.96 0 1.44-.56t.48-1.52v-8.48h1.44v8.48q0 1.568-.864 2.464-.849.896-2.496.896m9.321-.032q-.896 0-1.568-.272a2.7 2.7 0 0 1-1.056-.8 2.45 2.45 0 0 1-.464-1.216h1.44q.096.464.512.736.432.272 1.136.272h.672q.849 0 1.264-.336.417-.352.416-.928 0-.56-.384-.88-.368-.336-1.104-.448l-1.184-.192q-1.296-.224-1.936-.8-.624-.592-.624-1.712 0-1.183.752-1.824.753-.656 2.256-.656h.608q1.264 0 2.032.592.769.592.928 1.6h-1.44a1.02 1.02 0 0 0-.48-.656q-.383-.256-1.04-.256h-.608q-.816 0-1.2.304-.368.305-.368.912 0 .544.32.8.321.256 1.008.368l1.184.192q1.425.224 2.064.832.656.608.656 1.76 0 1.216-.784 1.92-.767.688-2.336.688zm9.866.032q-1.04 0-1.824-.416a3 3 0 0 1-1.2-1.168q-.416-.768-.416-1.776v-2.4q0-1.024.416-1.776a3 3 0 0 1 1.2-1.168q.784-.416 1.824-.416t1.808.416q.785.416 1.2 1.168.432.751.432 1.776v1.552h-5.472v.848q0 1.04.528 1.6.528.544 1.504.544.832 0 1.344-.288.512-.304.624-.896h1.44q-.144 1.104-1.088 1.76-.928.64-2.32.64m2.032-5.168v-.592q0-1.04-.528-1.6-.512-.56-1.504-.56-.976 0-1.504.56t-.528 1.6v.464h4.176zm4.538 5.008v-8.8h1.408v1.68h.336l-.464 1.04q0-1.424.608-2.144.624-.736 1.84-.736 1.392 0 2.208.88.832.864.832 2.352v.528h-1.44v-.4q0-1.04-.512-1.584-.497-.56-1.424-.56-.912 0-1.44.56-.513.56-.512 1.584v5.6zm18.771-6.56v-1.28h6.88v1.28zm0 3.84V265h6.88v1.28zm25.588 4.64q-2.273-.56-3.536-2.208-1.264-1.648-1.264-4.032v-2.88q0-1.567.576-2.832a6 6 0 0 1 1.664-2.16q1.087-.88 2.56-1.248v1.36a3.9 3.9 0 0 0-1.776.928 4.5 4.5 0 0 0-1.168 1.68q-.416 1.008-.416 2.272v2.88q0 1.232.4 2.24a4.5 4.5 0 0 0 1.168 1.68 4.2 4.2 0 0 0 1.792.896zm45.009-8.48q-.593 0-.96-.32-.368-.336-.368-.88c0-.544.122-.651.368-.864q.367-.336.96-.336.608 0 .96.336.368.32.368.864c0 .544-.123.656-.368.88q-.352.32-.96.32m0 6.72q-.593 0-.96-.32-.368-.336-.368-.88c0-.544.122-.651.368-.864q.367-.336.96-.336.608 0 .96.336.368.32.368.864c0 .544-.123.656-.368.88q-.352.32-.96.32m73.79 1.76v-1.424a4.1 4.1 0 0 0 1.792-.896 4.4 4.4 0 0 0 1.152-1.68q.416-1.008.416-2.24v-2.88q0-1.264-.416-2.272a4.54 4.54 0 0 0-1.168-1.68 3.9 3.9 0 0 0-1.776-.928v-1.36q1.488.368 2.56 1.248a5.9 5.9 0 0 1 1.648 2.16q.591 1.264.592 2.832v2.88q0 2.384-1.264 4.032t-3.536 2.208m12.553-8.48q-.591 0-.96-.32-.368-.336-.368-.88c0-.544.123-.651.368-.864q.369-.336.96-.336.609 0 .96.336.368.32.368.864c0 .544-.122.656-.368.88q-.351.32-.96.32m0 6.72q-.591 0-.96-.32-.368-.336-.368-.88c0-.544.123-.651.368-.864q.369-.336.96-.336.609 0 .96.336.368.32.368.864c0 .544-.122.656-.368.88q-.351.32-.96.32m66.437 1.6v-15.04h1.44v15.04zm123.646-2.32 1.712-2.16h-12.96V265h13.984l.304-.384q.305-.368.512-.592t.288-.288q-.08-.08-.304-.32a46 46 0 0 1-.56-.656l-.256-.32h-13.968v-1.28h12.96l-1.712-2.16h1.696l3.696 4.72-3.712 4.72zm-449.13 22.72q-1.52 0-2.432-.896-.912-.912-.912-2.464v-5.6h1.44v5.6q0 .992.512 1.552.511.544 1.392.544.896 0 1.408-.544.528-.56.528-1.552v-5.6h1.44v5.6q0 1.552-.928 2.464-.928.896-2.448.896m9.338-.032q-.897 0-1.568-.272a2.7 2.7 0 0 1-1.056-.8 2.44 2.44 0 0 1-.464-1.216h1.44q.095.464.512.736.431.272 1.136.272h.672q.847 0 1.264-.336.416-.352.416-.928 0-.56-.384-.88-.369-.336-1.104-.448l-1.184-.192q-1.297-.224-1.936-.8-.624-.592-.624-1.712 0-1.183.752-1.824.752-.656 2.256-.656h.608q1.263 0 2.032.592.768.592.928 1.6h-1.44a1.02 1.02 0 0 0-.48-.656q-.384-.256-1.04-.256h-.608q-.816 0-1.2.304-.368.304-.368.912 0 .544.32.8t1.008.368l1.184.192q1.424.224 2.064.832.656.608.656 1.76 0 1.216-.784 1.92-.767.688-2.336.688zm9.865.032q-1.039 0-1.823-.416a3 3 0 0 1-1.2-1.168q-.417-.768-.416-1.776v-2.4q0-1.024.415-1.776a3 3 0 0 1 1.2-1.168q.784-.416 1.825-.416t1.808.416a2.9 2.9 0 0 1 1.2 1.168q.431.751.431 1.776v1.552H92.33v.848q0 1.04.529 1.6.528.544 1.504.544.831 0 1.344-.288.51-.304.624-.896h1.44q-.146 1.104-1.088 1.76-.93.64-2.32.64Zm2.032-5.168v-.592q0-1.04-.528-1.6-.51-.56-1.504-.56-.975 0-1.503.56t-.528 1.6v.464h4.175zm4.538 5.008v-8.8h1.408v1.68h.336l-.464 1.04q0-1.424.608-2.144.624-.736 1.84-.736 1.392 0 2.208.88.832.864.832 2.352v.528h-1.44v-.4q0-1.04-.512-1.584-.495-.56-1.424-.56-.912 0-1.44.56-.512.56-.512 1.584v5.6zm12.346.128q-.896 0-1.568-.272a2.7 2.7 0 0 1-1.056-.8 2.44 2.44 0 0 1-.464-1.216h1.44q.096.464.512.736.432.272 1.136.272h.672q.848 0 1.264-.336.416-.352.416-.928 0-.56-.384-.88-.368-.336-1.104-.448l-1.184-.192q-1.296-.224-1.936-.8-.624-.592-.624-1.712 0-1.183.752-1.824.752-.656 2.256-.656h.608q1.264 0 2.032.592t.928 1.6h-1.44a1.02 1.02 0 0 0-.48-.656q-.384-.256-1.04-.256h-.608q-.816 0-1.2.304-.368.304-.368.912 0 .544.32.8t1.008.368l1.184.192q1.423.224 2.064.832.656.608.656 1.76 0 1.216-.784 1.92-.768.688-2.336.688zm9.866.032q-.609 0-.976-.352-.352-.352-.352-.944 0-.624.352-.992.367-.368.976-.368.607 0 .96.368.368.368.368.992 0 .592-.368.944-.353.352-.96.352m50.929 1.76q-2.272-.56-3.537-2.208-1.263-1.649-1.263-4.032v-2.88q0-1.567.576-2.832a6 6 0 0 1 1.664-2.16q1.087-.88 2.56-1.248v1.36a3.9 3.9 0 0 0-1.776.928 4.5 4.5 0 0 0-1.168 1.68q-.416 1.008-.416 2.272v2.88q0 1.232.4 2.24a4.5 4.5 0 0 0 1.168 1.68 4.2 4.2 0 0 0 1.792.896zm62.404-2.48 1.712-2.16h-12.96V287h13.984l.304-.384q.303-.368.512-.592a3 3 0 0 1 .288-.288q-.08-.08-.304-.32-.224-.256-.56-.656l-.256-.32h-13.968v-1.28h12.96l-1.712-2.16h1.696l3.696 4.72-3.712 4.72zm20.963.72q-1.52 0-2.432-.896-.912-.912-.912-2.464v-5.6h1.44v5.6q0 .992.512 1.552.513.544 1.392.544.897 0 1.408-.544.528-.56.528-1.552v-5.6h1.44v5.6q0 1.552-.928 2.464-.927.896-2.448.896m9.338-.032q-.896 0-1.568-.272a2.7 2.7 0 0 1-1.056-.8 2.44 2.44 0 0 1-.464-1.216h1.44q.096.464.512.736.432.272 1.136.272h.672q.848 0 1.264-.336.416-.352.416-.928 0-.56-.384-.88-.367-.336-1.104-.448l-1.184-.192q-1.296-.224-1.936-.8-.624-.592-.624-1.712 0-1.183.752-1.824.751-.656 2.256-.656h.608q1.264 0 2.032.592t.928 1.6h-1.44a1.02 1.02 0 0 0-.48-.656q-.384-.256-1.04-.256h-.608q-.816 0-1.2.304-.368.304-.368.912 0 .544.32.8t1.008.368l1.184.192q1.423.224 2.064.832.656.608.656 1.76 0 1.216-.784 1.92-.768.688-2.336.688zm9.866.032q-1.041 0-1.824-.416a3 3 0 0 1-1.2-1.168q-.416-.768-.416-1.776v-2.4q0-1.024.416-1.776a3 3 0 0 1 1.2-1.168q.783-.416 1.824-.416t1.808.416q.783.416 1.2 1.168.432.752.432 1.776v1.552h-5.472v.848q0 1.04.528 1.6.528.544 1.504.544.831 0 1.344-.288.511-.304.624-.896h1.44q-.144 1.104-1.088 1.76-.928.64-2.32.64m2.032-5.168v-.592q0-1.04-.528-1.6-.513-.56-1.504-.56-.976 0-1.504.56t-.528 1.6v.464h4.176zm4.538 5.008v-8.8h1.408v1.68h.336l-.464 1.04q0-1.424.608-2.144.624-.736 1.84-.736 1.392 0 2.208.88.832.864.832 2.352v.528h-1.44v-.4q0-1.04-.512-1.584-.497-.56-1.424-.56-.912 0-1.44.56-.512.56-.512 1.584v5.6zm12.617.16q-.607 0-.976-.352-.351-.352-.352-.944 0-.624.352-.992.369-.368.976-.368.609 0 .96.368.368.368.368.992 0 .592-.368.944-.351.352-.96.352m54.03-7.84v-1.12h26.24v1.12zm0 6.24v-1.12h26.24v1.12zm0-3.12v-1.12h26.24v1.12zm38.58 4.56v-8.8h1.44v1.68h.304l-.304.336q0-1.04.624-1.6.624-.576 1.728-.576 1.327 0 2.112.816.784.816.784 2.224V291h-1.44v-5.76q0-.943-.512-1.44-.496-.512-1.36-.512-.897 0-1.424.544-.512.544-.512 1.568v5.6zm12.154.16q-1.392 0-2.192-.704-.8-.72-.8-1.936 0-1.232.8-1.936t2.159-.704h2.721V285q0-.816-.496-1.248-.48-.448-1.376-.448-.784 0-1.312.336-.528.32-.608.88h-1.44a2.54 2.54 0 0 1 1.072-1.808q.928-.672 2.32-.672 1.52 0 2.4.784t.88 2.128V291h-1.408v-1.68h-.24l.24-.24q0 .96-.752 1.52-.736.56-1.968.56m.352-1.136q1.023 0 1.68-.512.656-.512.656-1.312v-1.248h-2.688q-.72 0-1.136.4-.417.4-.416 1.088 0 .736.496 1.168.511.416 1.408.416m6.265.976v-8.8h1.264v1.056h.288l-.224.384q0-.736.384-1.168.4-.432 1.072-.432.737 0 1.136.544.4.545.4 1.536l-.432-.864h.672l-.304.384q0-.736.4-1.168.416-.432 1.088-.432.833 0 1.28.624.464.624.464 1.648V291h-1.328v-6.704q0-.544-.24-.848-.224-.304-.672-.304a.85.85 0 0 0-.688.304q-.24.288-.24.832V291h-1.152v-6.704q0-.56-.256-.848-.24-.304-.688-.304t-.672.304q-.224.288-.224.832V291zm13.338.16q-1.04 0-1.824-.416a3 3 0 0 1-1.2-1.168q-.416-.768-.416-1.776v-2.4q0-1.024.416-1.776a3 3 0 0 1 1.2-1.168q.784-.416 1.824-.416t1.808.416q.785.416 1.2 1.168.432.751.432 1.776v1.552h-5.472v.848q0 1.04.528 1.6.528.544 1.504.544.833 0 1.344-.288.511-.304.624-.896h1.44q-.144 1.104-1.088 1.76-.928.64-2.32.64m2.032-5.168v-.592q0-1.04-.528-1.6-.512-.56-1.504-.56-.976 0-1.504.56t-.528 1.6v.464h4.176zm4.602 6.928v-1.424a4.1 4.1 0 0 0 1.792-.896 4.4 4.4 0 0 0 1.152-1.68q.416-1.008.416-2.24v-2.88q0-1.264-.416-2.272a4.54 4.54 0 0 0-1.168-1.68 3.9 3.9 0 0 0-1.776-.928v-1.36q1.488.367 2.56 1.248a5.9 5.9 0 0 1 1.648 2.16q.591 1.264.592 2.832v2.88q0 2.384-1.264 4.032t-3.536 2.208m10.474.64 1.28-4.976h2.08l-2.08 4.976zm1.92-9.12q-.528 0-.864-.336t-.336-.864q0-.512.336-.848.351-.352.864-.352h.32q.512 0 .848.352.351.336.352.848 0 .528-.336.864t-.864.336z"/><path fill="#F8518D" d="M132.738 49.16q-1.632 0-2.496-.896-.864-.913-.864-2.464v-8.48h1.44v8.48q0 .96.464 1.52.48.56 1.456.56.96 0 1.44-.56t.48-1.52v-8.48h1.44v8.48q0 1.568-.864 2.464-.849.896-2.496.896m9.321-.032q-.896 0-1.568-.272a2.7 2.7 0 0 1-1.056-.8 2.45 2.45 0 0 1-.464-1.216h1.44q.096.465.512.736.432.272 1.136.272h.672q.849 0 1.264-.336.417-.352.416-.928 0-.56-.384-.88-.368-.336-1.104-.448l-1.184-.192q-1.296-.224-1.936-.8-.624-.592-.624-1.712 0-1.184.752-1.824.753-.656 2.256-.656h.608q1.264 0 2.032.592.769.592.928 1.6h-1.44a1.02 1.02 0 0 0-.48-.656q-.383-.255-1.04-.256h-.608q-.816 0-1.2.304-.368.304-.368.912 0 .545.32.8.321.255 1.008.368l1.184.192q1.425.225 2.064.832.656.608.656 1.76 0 1.215-.784 1.92-.767.688-2.336.688zm9.866.032q-1.04 0-1.824-.416a3 3 0 0 1-1.2-1.168q-.416-.768-.416-1.776v-2.4q0-1.024.416-1.776a3 3 0 0 1 1.2-1.168q.784-.416 1.824-.416t1.808.416q.785.416 1.2 1.168.432.752.432 1.776v1.552h-5.472v.848q0 1.04.528 1.6.528.544 1.504.544.832 0 1.344-.288.512-.304.624-.896h1.44q-.144 1.104-1.088 1.76-.928.64-2.32.64m2.032-5.168V43.4q0-1.04-.528-1.6-.512-.56-1.504-.56-.976 0-1.504.56t-.528 1.6v.464h4.176zM158.495 49v-8.8h1.408v1.68h.336l-.464 1.04q0-1.425.608-2.144.624-.736 1.84-.736 1.392 0 2.208.88.831.864.832 2.352v.528h-1.44v-.4q0-1.04-.512-1.584-.497-.56-1.424-.56-.912 0-1.44.56-.513.56-.512 1.584V49zM71.847 71v-8.8h1.44v1.68h.304l-.304.336q0-1.04.624-1.6.624-.576 1.728-.576 1.328 0 2.112.816t.784 2.224V71h-1.44v-5.76q0-.945-.512-1.44-.496-.512-1.36-.512-.896 0-1.424.544-.512.544-.512 1.568V71zm12.154.16q-1.392 0-2.192-.704-.8-.72-.8-1.936 0-1.232.8-1.936t2.16-.704h2.72V65q0-.816-.496-1.248-.48-.448-1.376-.448-.784 0-1.312.336-.528.32-.608.88h-1.44a2.54 2.54 0 0 1 1.072-1.808q.927-.672 2.32-.672 1.52 0 2.4.784t.88 2.128V71H86.72v-1.68h-.24l.24-.24q0 .96-.752 1.52-.736.56-1.968.56Zm.352-1.136q1.023 0 1.68-.512.656-.512.656-1.312v-1.248H84q-.72 0-1.136.4-.417.4-.416 1.088 0 .735.496 1.168.511.416 1.408.416Zm6.266.976v-8.8h1.263v1.056h.288l-.224.384q0-.736.385-1.168.399-.432 1.072-.432.735 0 1.135.544t.4 1.536l-.431-.864h.671l-.303.384q0-.735.4-1.168.416-.432 1.087-.432.833 0 1.28.624.465.624.465 1.648V71h-1.329v-6.704q0-.544-.24-.848-.224-.304-.671-.304a.85.85 0 0 0-.689.304q-.24.288-.24.832V71h-1.151v-6.704q0-.56-.257-.848-.24-.304-.688-.304t-.671.304q-.225.288-.225.832V71zm13.337.16q-1.04 0-1.824-.416a3 3 0 0 1-1.2-1.168q-.416-.768-.416-1.776v-2.4q0-1.025.416-1.776a3 3 0 0 1 1.2-1.168q.784-.416 1.824-.416t1.808.416q.784.416 1.2 1.168.432.752.432 1.776v1.552h-5.472v.848q0 1.04.528 1.6.529.544 1.504.544.833 0 1.344-.288.513-.304.624-.896h1.44q-.144 1.104-1.088 1.76-.927.64-2.32.64m2.032-5.168V65.4q0-1.04-.528-1.6-.511-.56-1.504-.56-.976 0-1.504.56t-.528 1.6v.464h4.176zM74.407 93.16q-1.392 0-2.192-.704-.8-.72-.8-1.936 0-1.232.8-1.936t2.16-.704h2.72V87q0-.816-.496-1.248-.48-.448-1.376-.448-.784 0-1.312.336-.528.32-.608.88h-1.44a2.54 2.54 0 0 1 1.072-1.808q.928-.672 2.32-.672 1.52 0 2.4.784c.88.784.88 1.232.88 2.128V93h-1.408v-1.68h-.24l.24-.24q0 .96-.752 1.52-.736.56-1.968.56m.352-1.136q1.024 0 1.68-.512t.656-1.312v-1.248h-2.688q-.72 0-1.136.4t-.416 1.088q0 .735.496 1.168.511.416 1.408.416m7.786 3.856v-1.312h2.8q.672 0 .976-.304.32-.304.32-.944V92.2l.032-1.6h-.288l.272-.24q0 .96-.64 1.52t-1.712.56q-1.36 0-2.144-.88-.784-.895-.784-2.4v-1.856q0-1.504.784-2.384.783-.88 2.144-.88 1.071 0 1.712.56.64.56.64 1.52l-.272-.24h.272V84.2h1.424v9.12q0 1.184-.736 1.872-.72.688-2.016.688zm2.192-4.688q.895 0 1.408-.56t.512-1.552V87.4q0-.992-.512-1.552t-1.408-.56q-.912 0-1.424.544-.496.544-.496 1.568v1.68q0 1.024.496 1.568.512.544 1.424.544m9.626 1.968q-1.04 0-1.825-.416a3 3 0 0 1-1.2-1.168q-.415-.768-.415-1.776v-2.4q0-1.025.415-1.776a3 3 0 0 1 1.2-1.168q.784-.416 1.825-.416t1.808.416a2.9 2.9 0 0 1 1.2 1.168q.431.752.431 1.776v1.552H92.33v.848q0 1.04.529 1.6.528.544 1.504.544.831 0 1.344-.288.51-.304.624-.896h1.44q-.146 1.104-1.088 1.76-.93.64-2.32.64m2.031-5.168V87.4q0-1.04-.528-1.6-.51-.56-1.504-.56-.975 0-1.503.56t-.528 1.6v.464h4.175zm-2.047 71.168q-1.521 0-2.432-.896-.913-.912-.913-2.464v-5.6h1.44v5.6q0 .992.513 1.552.51.544 1.392.544.895 0 1.407-.544.528-.56.528-1.552v-5.6h1.44v5.6q0 1.552-.927 2.464-.93.896-2.448.896m9.337-.032q-.896 0-1.568-.272a2.7 2.7 0 0 1-1.056-.8 2.45 2.45 0 0 1-.464-1.216h1.44q.096.464.512.736.432.272 1.136.272h.672q.849 0 1.264-.336.416-.352.416-.928 0-.56-.384-.88-.367-.336-1.104-.448l-1.184-.192q-1.296-.224-1.936-.8-.624-.592-.624-1.712 0-1.183.752-1.824.753-.656 2.256-.656h.608q1.264 0 2.032.592.769.592.928 1.6h-1.44a1.02 1.02 0 0 0-.48-.656q-.384-.256-1.04-.256h-.608q-.816 0-1.2.304-.368.304-.368.912 0 .544.32.8.321.256 1.008.368l1.184.192q1.425.224 2.064.832.656.608.656 1.76 0 1.216-.784 1.92-.767.688-2.336.688zm9.866.032q-1.04 0-1.824-.416a3 3 0 0 1-1.2-1.168q-.416-.768-.416-1.776v-2.4q0-1.024.416-1.776a3 3 0 0 1 1.2-1.168q.784-.416 1.824-.416t1.808.416q.784.416 1.2 1.168.432.751.432 1.776v1.552h-5.472v.848q0 1.04.528 1.6.528.544 1.504.544.833 0 1.344-.288.512-.304.624-.896h1.44q-.144 1.104-1.088 1.76-.928.64-2.32.64m2.032-5.168v-.592q0-1.04-.528-1.6-.512-.56-1.504-.56-.976 0-1.504.56t-.528 1.6v.464h4.176zM120.12 159v-8.8h1.408v1.68h.336l-.464 1.04q0-1.424.608-2.144.624-.736 1.84-.736 1.392 0 2.208.88.831.864.832 2.352v.528h-1.44v-.4q0-1.04-.512-1.584-.497-.56-1.424-.56-.912 0-1.44.56-.513.56-.512 1.584v5.6zm12.346.128q-.897 0-1.568-.272a2.67 2.67 0 0 1-1.056-.8 2.44 2.44 0 0 1-.464-1.216h1.44q.096.464.512.736.431.272 1.136.272h.672q.847 0 1.264-.336.416-.352.416-.928 0-.56-.384-.88-.369-.336-1.104-.448l-1.184-.192q-1.297-.224-1.936-.8-.624-.592-.624-1.712 0-1.183.752-1.824.751-.656 2.256-.656h.608q1.264 0 2.032.592t.927 1.6h-1.439a1.02 1.02 0 0 0-.48-.656q-.384-.256-1.04-.256h-.608q-.816 0-1.2.304-.369.304-.368.912 0 .544.32.8t1.008.368l1.184.192q1.424.224 2.064.832.656.608.656 1.76 0 1.216-.784 1.92-.768.688-2.336.688zm29.053.032q-1.632 0-2.496-.896-.864-.912-.864-2.464v-8.48h1.44v8.48q0 .96.464 1.52.48.56 1.456.56.96 0 1.44-.56t.48-1.52v-8.48h1.44v8.48q0 1.568-.864 2.464-.849.896-2.496.896m9.322-.032q-.897 0-1.568-.272a2.67 2.67 0 0 1-1.056-.8 2.44 2.44 0 0 1-.464-1.216h1.44q.096.464.512.736.431.272 1.136.272h.672q.847 0 1.264-.336.416-.352.416-.928 0-.56-.384-.88-.369-.336-1.104-.448l-1.184-.192q-1.297-.224-1.936-.8-.624-.592-.624-1.712 0-1.183.752-1.824.751-.656 2.256-.656h.608q1.264 0 2.032.592t.927 1.6h-1.439a1.02 1.02 0 0 0-.48-.656q-.384-.256-1.04-.256h-.608q-.816 0-1.2.304-.369.304-.368.912 0 .544.32.8t1.008.368l1.184.192q1.424.224 2.064.832.656.608.656 1.76 0 1.216-.784 1.92-.768.688-2.336.688zm9.865.032q-1.04 0-1.824-.416a3 3 0 0 1-1.2-1.168q-.416-.768-.416-1.776v-2.4q0-1.024.416-1.776a3 3 0 0 1 1.2-1.168q.784-.416 1.824-.416t1.808.416q.784.416 1.2 1.168.432.751.432 1.776v1.552h-5.472v.848q0 1.04.528 1.6.528.544 1.504.544.832 0 1.344-.288.513-.304.624-.896h1.44q-.143 1.104-1.088 1.76-.928.64-2.32.64m2.032-5.168v-.592q0-1.04-.528-1.6-.511-.56-1.504-.56-.975 0-1.504.56-.528.56-.528 1.6v.464h4.176zm4.538 5.008v-8.8h1.408v1.68h.336l-.464 1.04q0-1.424.608-2.144.624-.736 1.84-.736 1.392 0 2.208.88.832.864.832 2.352v.528h-1.44v-.4q0-1.04-.512-1.584-.496-.56-1.424-.56-.912 0-1.44.56-.512.56-.512 1.584v5.6zm-96.242 22v-8.8h1.44v1.68h.304l-.303.336q0-1.04.624-1.6.624-.576 1.727-.576 1.329 0 2.113.816t.784 2.224V181h-1.44v-5.76q0-.943-.513-1.44-.495-.512-1.36-.512-.896 0-1.423.544-.512.544-.512 1.568v5.6h-1.44Zm12.154.16q-1.392 0-2.192-.704-.8-.72-.8-1.936 0-1.232.8-1.936.801-.704 2.16-.704h2.72V175q0-.816-.496-1.248-.48-.448-1.376-.448-.783 0-1.312.336-.528.32-.608.88h-1.44a2.54 2.54 0 0 1 1.072-1.808q.928-.672 2.32-.672 1.521 0 2.4.784.88.784.88 2.128V181h-1.408v-1.68h-.24l.24-.24q0 .96-.752 1.52-.735.56-1.968.56m.352-1.136q1.025 0 1.68-.512.657-.512.656-1.312v-1.248h-2.688q-.72 0-1.136.4t-.416 1.088q0 .736.496 1.168.513.416 1.408.416m6.266.976v-8.8h1.264v1.056h.288l-.224.384q0-.736.384-1.168.4-.432 1.072-.432.736 0 1.136.544t.4 1.536l-.432-.864h.672l-.304.384q0-.736.4-1.168.416-.432 1.088-.432.832 0 1.28.624.464.624.464 1.648V181h-1.328v-6.704q0-.544-.24-.848-.224-.304-.672-.304a.85.85 0 0 0-.688.304q-.24.288-.24.832V181h-1.152v-6.704q0-.56-.256-.848-.24-.304-.688-.304t-.672.304q-.224.288-.224.832V181zm13.338.16q-1.041 0-1.824-.416a3 3 0 0 1-1.2-1.168q-.417-.768-.416-1.776v-2.4q0-1.024.416-1.776a3 3 0 0 1 1.2-1.168q.783-.416 1.824-.416t1.808.416q.783.416 1.2 1.168.432.751.432 1.776v1.552h-5.472v.848q0 1.04.528 1.6.528.544 1.504.544.831 0 1.344-.288.512-.304.624-.896h1.44q-.144 1.104-1.088 1.76-.928.64-2.32.64m2.032-5.168v-.592q0-1.04-.528-1.6-.513-.56-1.504-.56-.976 0-1.504.56t-.528 1.6v.464h4.176zm112.325 5.168q-1.392 0-2.192-.704-.8-.72-.8-1.936 0-1.232.8-1.936t2.16-.704h2.72V175q0-.816-.496-1.248-.48-.448-1.376-.448-.784 0-1.312.336-.528.32-.608.88h-1.44a2.54 2.54 0 0 1 1.072-1.808q.928-.672 2.32-.672 1.52 0 2.4.784t.88 2.128V181h-1.408v-1.68h-.24l.24-.24q0 .96-.752 1.52-.736.56-1.968.56m.352-1.136q1.023 0 1.68-.512.656-.512.656-1.312v-1.248h-2.688q-.72 0-1.136.4t-.416 1.088q0 .736.496 1.168.511.416 1.408.416m7.786 3.856v-1.312h2.8q.672 0 .976-.304.32-.304.32-.944v-1.12l.032-1.6h-.288l.272-.24q0 .96-.64 1.52t-1.712.56q-1.36 0-2.144-.88-.784-.895-.784-2.4v-1.856q0-1.504.784-2.384.783-.88 2.144-.88 1.071 0 1.712.56.64.56.64 1.52l-.272-.24h.272v-1.68h1.424v9.12q0 1.183-.736 1.872-.72.688-2.016.688zm2.192-4.688q.895 0 1.408-.56t.512-1.552v-1.68q0-.992-.512-1.552-.513-.56-1.408-.56-.912 0-1.424.544-.496.544-.496 1.568v1.68q0 1.024.496 1.568.512.544 1.424.544m9.625 1.968q-1.04 0-1.824-.416a3 3 0 0 1-1.2-1.168q-.416-.768-.416-1.776v-2.4q0-1.024.416-1.776a3 3 0 0 1 1.2-1.168q.785-.416 1.824-.416t1.808.416q.784.416 1.2 1.168.432.751.432 1.776v1.552h-5.472v.848q0 1.04.528 1.6.528.544 1.504.544.832 0 1.344-.288.513-.304.624-.896h1.44q-.144 1.104-1.088 1.76-.927.64-2.32.64m2.032-5.168v-.592q0-1.04-.528-1.6-.511-.56-1.504-.56-.975 0-1.504.56-.528.56-.528 1.6v.464h4.176zM91.034 203v-8.8h1.44v1.68h.304l-.303.336q0-1.04.624-1.6.624-.576 1.727-.576 1.329 0 2.113.816t.784 2.224V203h-1.44v-5.76q0-.943-.513-1.44-.495-.512-1.36-.512-.896 0-1.423.544-.513.544-.512 1.568v5.6zm12.154.16q-1.391 0-2.192-.704-.8-.72-.8-1.936 0-1.232.8-1.936.801-.704 2.16-.704h2.72V197q0-.816-.496-1.248-.48-.448-1.376-.448-.783 0-1.312.336-.528.32-.608.88h-1.44a2.54 2.54 0 0 1 1.072-1.808q.928-.672 2.32-.672 1.521 0 2.4.784.88.784.88 2.128V203h-1.408v-1.68h-.24l.24-.24q0 .96-.752 1.52-.735.56-1.968.56m.352-1.136q1.024 0 1.68-.512.657-.512.656-1.312v-1.248h-2.688q-.72 0-1.136.4t-.416 1.088q0 .736.496 1.168.513.416 1.408.416m6.266.976v-8.8h1.264v1.056h.288l-.224.384q0-.736.384-1.168.4-.432 1.072-.432.736 0 1.136.544t.4 1.536l-.432-.864h.672l-.304.384q0-.736.4-1.168.416-.432 1.088-.432.832 0 1.28.624.464.624.464 1.648V203h-1.328v-6.704q0-.544-.24-.848-.224-.304-.672-.304a.85.85 0 0 0-.688.304q-.24.288-.24.832V203h-1.152v-6.704q0-.56-.256-.848-.24-.304-.688-.304-.449 0-.672.304-.224.288-.224.832V203zm13.338.16q-1.041 0-1.824-.416a3 3 0 0 1-1.2-1.168q-.417-.768-.416-1.776v-2.4q0-1.024.416-1.776a3 3 0 0 1 1.2-1.168q.783-.416 1.824-.416t1.808.416q.783.416 1.2 1.168.432.751.432 1.776v1.552h-5.472v.848q0 1.04.528 1.6.528.544 1.504.544.831 0 1.344-.288.511-.304.624-.896h1.44q-.144 1.104-1.088 1.76-.928.64-2.32.64m2.032-5.168v-.592q0-1.04-.528-1.6-.513-.56-1.504-.56-.976 0-1.504.56t-.528 1.6v.464h4.176zm93.137 5.168q-1.391 0-2.192-.704-.8-.72-.8-1.936 0-1.232.8-1.936.801-.704 2.16-.704h2.72V197q0-.816-.496-1.248-.48-.448-1.376-.448-.784 0-1.312.336-.527.32-.608.88h-1.44a2.54 2.54 0 0 1 1.072-1.808q.928-.672 2.32-.672 1.521 0 2.4.784.88.784.88 2.128V203h-1.408v-1.68h-.24l.24-.24q0 .96-.752 1.52-.735.56-1.968.56m.352-1.136q1.024 0 1.68-.512t.656-1.312v-1.248h-2.688q-.72 0-1.136.4t-.416 1.088q0 .736.496 1.168.513.416 1.408.416m7.786 3.856v-1.312h2.8q.672 0 .976-.304.32-.304.32-.944v-1.12l.032-1.6h-.288l.272-.24q0 .96-.64 1.52t-1.712.56q-1.36 0-2.144-.88-.784-.895-.784-2.4v-1.856q0-1.504.784-2.384c.784-.88 1.237-.88 2.144-.88q1.072 0 1.712.56t.64 1.52l-.272-.24h.272v-1.68h1.424v9.12q0 1.183-.736 1.872-.72.688-2.016.688zm2.192-4.688q.896 0 1.408-.56t.512-1.552v-1.68q0-.992-.512-1.552t-1.408-.56q-.912 0-1.424.544-.496.544-.496 1.568v1.68q0 1.024.496 1.568.512.544 1.424.544m9.626 1.968q-1.041 0-1.824-.416a3 3 0 0 1-1.2-1.168q-.416-.768-.416-1.776v-2.4q0-1.024.416-1.776a3 3 0 0 1 1.2-1.168q.783-.416 1.824-.416t1.808.416q.783.416 1.2 1.168.432.751.432 1.776v1.552h-5.472v.848q0 1.04.528 1.6.528.544 1.504.544.831 0 1.344-.288.512-.304.624-.896h1.44q-.144 1.104-1.088 1.76-.928.64-2.32.64m2.032-5.168v-.592q0-1.04-.528-1.6-.513-.56-1.504-.56-.976 0-1.504.56t-.528 1.6v.464h4.176zM206.16 269v-8.8h1.44v1.68h.304l-.304.336q0-1.04.624-1.6.624-.576 1.728-.576 1.328 0 2.112.816t.784 2.224V269h-1.44v-5.76q0-.943-.512-1.44-.496-.512-1.36-.512-.897 0-1.424.544-.512.544-.512 1.568v5.6zm12.153.16q-1.391 0-2.192-.704-.8-.72-.8-1.936 0-1.232.8-1.936.801-.704 2.16-.704h2.72V263q0-.816-.496-1.248-.48-.448-1.376-.448-.784 0-1.312.336-.527.32-.608.88h-1.44a2.54 2.54 0 0 1 1.072-1.808q.928-.672 2.32-.672 1.521 0 2.4.784.88.784.88 2.128V269h-1.408v-1.68h-.24l.24-.24q0 .96-.752 1.52-.735.56-1.968.56m.352-1.136q1.024 0 1.68-.512t.656-1.312v-1.248h-2.688q-.72 0-1.136.4t-.416 1.088q0 .736.496 1.168.513.416 1.408.416m6.266.976v-8.8h1.264v1.056h.288l-.224.384q0-.736.384-1.168.4-.432 1.072-.432.736 0 1.136.544t.4 1.536l-.432-.864h.672l-.304.384q0-.736.4-1.168.416-.432 1.088-.432.832 0 1.28.624.464.624.464 1.648V269h-1.328v-6.704q0-.544-.24-.848-.224-.304-.672-.304a.85.85 0 0 0-.688.304q-.24.288-.24.832V269h-1.152v-6.704q0-.56-.256-.848-.24-.304-.688-.304-.449 0-.672.304-.224.288-.224.832V269zm13.338.16q-1.041 0-1.824-.416a3 3 0 0 1-1.2-1.168q-.416-.768-.416-1.776v-2.4q0-1.024.416-1.776a3 3 0 0 1 1.2-1.168q.783-.416 1.824-.416t1.808.416q.783.416 1.2 1.168.432.751.432 1.776v1.552h-5.472v.848q0 1.04.528 1.6.528.544 1.504.544.831 0 1.344-.288.511-.304.624-.896h1.44q-.144 1.104-1.088 1.76-.928.64-2.32.64m2.032-5.168v-.592q0-1.04-.528-1.6-.513-.56-1.504-.56-.976 0-1.504.56t-.528 1.6v.464h4.176zm113.093 5.168q-1.632 0-2.496-.896-.864-.912-.864-2.464v-8.48h1.44v8.48q0 .96.464 1.52.48.56 1.456.56.96 0 1.44-.56t.48-1.52v-8.48h1.44v8.48q0 1.568-.864 2.464-.849.896-2.496.896m9.322-.032q-.897 0-1.568-.272a2.67 2.67 0 0 1-1.056-.8 2.44 2.44 0 0 1-.464-1.216h1.44q.095.464.512.736.432.272 1.136.272h.672q.847 0 1.264-.336.416-.352.416-.928 0-.56-.384-.88-.369-.336-1.104-.448l-1.184-.192q-1.296-.224-1.936-.8-.624-.592-.624-1.712 0-1.183.752-1.824.751-.656 2.256-.656h.608q1.263 0 2.032.592.768.592.927 1.6h-1.439a1.02 1.02 0 0 0-.48-.656q-.384-.256-1.04-.256h-.608q-.816 0-1.2.304-.369.305-.368.912 0 .544.32.8t1.008.368l1.184.192q1.423.224 2.064.832.656.608.656 1.76 0 1.216-.784 1.92-.768.688-2.336.688zm9.865.032q-1.04 0-1.824-.416a3 3 0 0 1-1.2-1.168q-.416-.768-.416-1.776v-2.4q0-1.024.416-1.776a3 3 0 0 1 1.2-1.168q.785-.416 1.824-.416t1.808.416q.785.416 1.2 1.168.432.751.432 1.776v1.552h-5.472v.848q0 1.04.528 1.6.528.544 1.504.544.833 0 1.344-.288.513-.304.624-.896h1.44q-.143 1.104-1.088 1.76-.928.64-2.32.64m2.032-5.168v-.592q0-1.04-.528-1.6-.511-.56-1.504-.56-.976 0-1.504.56t-.528 1.6v.464h4.176zm4.538 5.008v-8.8h1.408v1.68h.336l-.464 1.04q0-1.424.608-2.144.624-.736 1.84-.736 1.392 0 2.208.88.832.864.832 2.352v.528h-1.44v-.4q0-1.04-.512-1.584-.496-.56-1.424-.56-.912 0-1.44.56-.512.56-.512 1.584v5.6zm41.383.16q-1.52 0-2.432-.896-.912-.912-.912-2.464v-5.6h1.44v5.6q0 .992.512 1.552.512.544 1.392.544.896 0 1.408-.544.528-.56.528-1.552v-5.6h1.44v5.6q0 1.552-.928 2.464-.929.896-2.448.896m6.282-.16v-8.8h1.44v1.68h.304l-.304.336q0-1.04.624-1.6.624-.576 1.728-.576 1.327 0 2.112.816.784.816.784 2.224V269h-1.44v-5.76q0-.943-.512-1.44-.496-.512-1.36-.512-.897 0-1.424.544-.512.544-.512 1.568v5.6zm12.41.16q-1.312 0-2.128-.88-.8-.88-.8-2.384v-2.576q0-1.52.8-2.4t2.128-.88q1.087 0 1.744.592.656.592.656 1.584l-.288-.336h.32l-.032-2v-2.56h1.44V269h-1.44v-1.68h-.288l.288-.336q0 1.008-.656 1.6-.657.576-1.744.576m.48-1.248q.895 0 1.408-.56t.512-1.552v-2.4q0-.992-.512-1.552-.513-.56-1.408-.56-.912 0-1.44.544t-.528 1.568v2.4q0 1.024.528 1.568t1.44.544m9.625 1.248q-1.04 0-1.824-.416a3 3 0 0 1-1.2-1.168q-.416-.768-.416-1.776v-2.4q0-1.024.416-1.776a3 3 0 0 1 1.2-1.168q.785-.416 1.824-.416t1.808.416q.785.416 1.2 1.168.432.751.432 1.776v1.552h-5.472v.848q0 1.04.528 1.6.528.544 1.504.544.833 0 1.344-.288.513-.304.624-.896h1.44q-.143 1.104-1.088 1.76-.928.64-2.32.64m2.032-5.168v-.592q0-1.04-.528-1.6-.511-.56-1.504-.56-.976 0-1.504.56t-.528 1.6v.464h4.176zm6.282 5.008v-6.608h-2.56v-1.312h2.56v-1.52q0-1.04.656-1.632.656-.608 1.808-.608h2.576v1.312h-2.576q-.497 0-.768.24-.256.224-.256.688v1.52h3.6v1.312h-3.6V269zm7.434 0v-1.312h3.12v-6.176h-2.72V260.2h4.16v7.488h2.96V269zm3.68-10.384q-.529 0-.832-.272-.304-.272-.304-.736 0-.48.304-.752.303-.288.832-.288c.529 0 .629.096.832.288q.303.272.304.752 0 .464-.304.736t-.832.272M474.785 269v-8.8h1.44v1.68h.304l-.304.336q0-1.04.624-1.6.624-.576 1.728-.576 1.327 0 2.112.816.784.816.784 2.224V269h-1.44v-5.76q0-.943-.512-1.44-.496-.512-1.36-.512-.897 0-1.424.544-.512.544-.512 1.568v5.6zm12.921.16q-1.04 0-1.824-.416a3 3 0 0 1-1.2-1.168q-.416-.768-.416-1.776v-2.4q0-1.024.416-1.776a3 3 0 0 1 1.2-1.168q.785-.416 1.824-.416t1.808.416q.785.416 1.2 1.168.432.751.432 1.776v1.552h-5.472v.848q0 1.04.528 1.6.528.544 1.504.544.833 0 1.344-.288.513-.304.624-.896h1.44q-.143 1.104-1.088 1.76-.928.64-2.32.64m2.032-5.168v-.592q0-1.04-.528-1.6-.511-.56-1.504-.56-.976 0-1.504.56t-.528 1.6v.464h4.176zm7.05 5.168q-1.312 0-2.128-.88-.8-.88-.8-2.384v-2.576q0-1.52.8-2.4c.8-.88 1.243-.88 2.128-.88q1.088 0 1.744.592t.656 1.584l-.288-.336h.32l-.032-2v-2.56h1.44V269h-1.44v-1.68h-.288l.288-.336q0 1.008-.656 1.6-.656.576-1.744.576m.48-1.248q.896 0 1.408-.56t.512-1.552v-2.4q0-.992-.512-1.552t-1.408-.56q-.912 0-1.44.544t-.528 1.568v2.4q0 1.024.528 1.568t1.44.544M131.458 291v-6.608h-2.56v-1.312h2.56v-1.52q0-1.04.656-1.632.656-.608 1.808-.608h2.576v1.312h-2.576q-.496 0-.768.24-.256.224-.256.688v1.52h3.6v1.312h-3.6V291zm7.433 0v-1.312h3.12v-6.176h-2.72V282.2h4.16v7.488h2.96V291zm3.68-10.384q-.528 0-.832-.272t-.304-.736q0-.48.304-.752.304-.288.832-.288c.528 0 .63.096.832.288q.304.272.304.752 0 .464-.304.736-.303.272-.832.272M148.597 291v-8.8h1.44v1.68h.304l-.304.336q0-1.04.624-1.6.624-.576 1.728-.576 1.327 0 2.112.816.784.816.784 2.224V291h-1.44v-5.76q0-.943-.512-1.44-.496-.512-1.36-.512-.896 0-1.424.544-.512.544-.512 1.568v5.6zm12.41.16q-1.312 0-2.128-.88-.8-.88-.8-2.384v-2.576q0-1.52.8-2.4t2.128-.88q1.087 0 1.744.592.656.592.656 1.584l-.288-.336h.32l-.032-2v-2.56h1.44V291h-1.44v-1.68h-.288l.288-.336q0 1.008-.656 1.6-.657.576-1.744.576m.48-1.248q.895 0 1.408-.56t.512-1.552v-2.4q0-.992-.512-1.552-.513-.56-1.408-.56-.912 0-1.44.544t-.528 1.568v2.4q0 1.024.528 1.568t1.44.544m19.203 1.248q-1.52 0-2.432-.896-.912-.912-.912-2.464v-5.6h1.44v5.6q0 .992.512 1.552.513.544 1.392.544.897 0 1.408-.544.528-.56.528-1.552v-5.6h1.44v5.6q0 1.552-.928 2.464-.927.896-2.448.896m9.338-.032q-.896 0-1.568-.272a2.7 2.7 0 0 1-1.056-.8 2.44 2.44 0 0 1-.464-1.216h1.44q.096.464.512.736.432.272 1.136.272h.672q.848 0 1.264-.336.416-.352.416-.928 0-.56-.384-.88-.368-.336-1.104-.448l-1.184-.192q-1.296-.224-1.936-.8-.624-.592-.624-1.712 0-1.183.752-1.824.751-.656 2.256-.656h.608q1.264 0 2.032.592t.928 1.6h-1.44a1.02 1.02 0 0 0-.48-.656q-.384-.256-1.04-.256h-.608q-.816 0-1.2.304-.368.305-.368.912 0 .544.32.8t1.008.368l1.184.192q1.424.224 2.064.832.656.608.656 1.76 0 1.216-.784 1.92-.768.688-2.336.688zm9.866.032q-1.041 0-1.824-.416a3 3 0 0 1-1.2-1.168q-.416-.768-.416-1.776v-2.4q0-1.024.416-1.776a3 3 0 0 1 1.2-1.168q.783-.416 1.824-.416t1.808.416q.783.416 1.2 1.168.432.751.432 1.776v1.552h-5.472v.848q0 1.04.528 1.6.528.544 1.504.544.831 0 1.344-.288.512-.304.624-.896h1.44q-.144 1.104-1.088 1.76-.928.64-2.32.64m2.032-5.168v-.592q0-1.04-.528-1.6-.513-.56-1.504-.56-.976 0-1.504.56t-.528 1.6v.464h4.176zm4.538 5.008v-8.8h1.408v1.68h.336l-.464 1.04q0-1.424.608-2.144.624-.736 1.84-.736 1.392 0 2.208.88.832.864.832 2.352v.528h-1.44v-.4q0-1.04-.512-1.584-.497-.56-1.424-.56-.912 0-1.44.56-.513.56-.512 1.584v5.6z"/><path fill="#E9AEFE" d="M132.466 71.128q-.897 0-1.568-.272a2.67 2.67 0 0 1-1.056-.8 2.44 2.44 0 0 1-.464-1.216h1.44q.096.465.512.736.431.272 1.136.272h.672q.847 0 1.264-.336.416-.352.416-.928 0-.56-.384-.88-.369-.336-1.104-.448l-1.184-.192q-1.297-.224-1.936-.8-.624-.592-.624-1.712 0-1.184.752-1.824.751-.656 2.256-.656h.608q1.264 0 2.032.592t.927 1.6h-1.439a1.02 1.02 0 0 0-.48-.656q-.384-.255-1.04-.256h-.608q-.816 0-1.2.304-.369.305-.368.912 0 .545.32.8t1.008.368l1.184.192q1.424.225 2.064.832.656.608.656 1.76 0 1.215-.784 1.92-.768.688-2.336.688zM143.291 71q-1.135 0-1.776-.608-.624-.608-.624-1.712v-5.168h-2.48V62.2h2.48v-2.48h1.44v2.48h3.52v1.312h-3.52v5.168q0 1.008.96 1.008h2.4V71zm5.61 0v-8.8h1.408v1.68h.336l-.464 1.04q0-1.425.608-2.144.624-.736 1.84-.736 1.392 0 2.208.88.832.864.832 2.352v.528h-1.44v-.4q0-1.04-.512-1.584-.496-.56-1.424-.56-.912 0-1.44.56-.512.56-.512 1.584V71zm9.178 0v-1.312h3.12v-6.176h-2.72V62.2h4.16v7.488h2.96V71zm3.68-10.384q-.529 0-.832-.272-.304-.272-.304-.736 0-.48.304-.752.303-.288.832-.288c.529 0 .629.096.832.288q.304.272.304.752 0 .465-.304.736-.304.272-.832.272M167.785 71v-8.8h1.44v1.68h.304l-.304.336q0-1.04.624-1.6.624-.576 1.728-.576 1.328 0 2.112.816t.784 2.224V71h-1.44v-5.76q0-.945-.512-1.44-.496-.512-1.36-.512-.897 0-1.424.544-.513.544-.512 1.568V71zm10.697 2.88v-1.312h2.8q.672 0 .976-.304.32-.304.32-.944V70.2l.032-1.6h-.288l.272-.24q0 .96-.64 1.52t-1.712.56q-1.36 0-2.144-.88-.784-.895-.784-2.4v-1.856q0-1.504.784-2.384.785-.88 2.144-.88 1.073 0 1.712.56.64.56.64 1.52l-.272-.24h.272V62.2h1.424v9.12q0 1.184-.736 1.872-.72.688-2.016.688zm2.192-4.688q.897 0 1.408-.56.512-.56.512-1.552V65.4q0-.992-.512-1.552-.511-.56-1.408-.56-.911 0-1.424.544-.496.544-.496 1.568v1.68q0 1.024.496 1.568.513.544 1.424.544M119.816 93v-8.8h1.44v1.68h.304l-.304.336q0-1.04.624-1.6.624-.576 1.728-.576 1.328 0 2.112.816t.784 2.224V93h-1.44v-5.76q0-.945-.512-1.44-.496-.512-1.36-.512-.897 0-1.424.544-.512.544-.512 1.568V93zm12.906.16q-1.52 0-2.433-.896-.91-.913-.911-2.464v-5.6h1.44v5.6q0 .992.512 1.552.512.544 1.392.544.895 0 1.408-.544.528-.56.528-1.552v-5.6h1.44v5.6q0 1.552-.928 2.464-.929.896-2.448.896m5.865-.16v-8.8h1.264v1.056h.288l-.224.384q0-.735.384-1.168.4-.432 1.072-.432.737 0 1.136.544.4.544.4 1.536l-.432-.864h.672l-.304.384q0-.735.4-1.168.416-.432 1.088-.432.833 0 1.28.624.464.624.464 1.648V93h-1.328v-6.704q0-.544-.24-.848-.224-.304-.672-.304a.85.85 0 0 0-.688.304q-.24.288-.24.832V93h-1.152v-6.704q0-.56-.256-.848-.24-.304-.688-.304t-.672.304q-.224.288-.224.832V93zm13.85.16q-1.088 0-1.744-.576-.656-.592-.656-1.6l.288.336h-.288V93h-1.44V81.32h1.44v2.56l-.032 2h.32l-.288.336q0-.992.656-1.584.672-.592 1.744-.592 1.328 0 2.128.88t.8 2.4v2.576q0 1.504-.8 2.384c-.8.88-1.243.88-2.128.88m-.48-1.248q.912 0 1.44-.544t.528-1.568v-2.4q0-1.024-.528-1.568t-1.44-.544q-.88 0-1.408.56-.512.56-.512 1.552v2.4q0 .992.512 1.552.528.56 1.408.56m9.562 1.248q-1.041 0-1.824-.416a3 3 0 0 1-1.2-1.168q-.417-.768-.416-1.776v-2.4q0-1.025.416-1.776a3 3 0 0 1 1.2-1.168q.783-.416 1.824-.416t1.808.416q.783.416 1.2 1.168.432.752.432 1.776v1.552h-5.472v.848q0 1.04.528 1.6.528.544 1.504.544.831 0 1.344-.288.512-.304.624-.896h1.44q-.144 1.104-1.088 1.76-.928.64-2.32.64m2.032-5.168V87.4q0-1.04-.528-1.6-.513-.56-1.504-.56-.976 0-1.504.56t-.528 1.6v.464h4.176zM168.089 93v-8.8h1.408v1.68h.336l-.464 1.04q0-1.425.608-2.144.624-.736 1.84-.736 1.392 0 2.208.88.832.864.832 2.352v.528h-1.44v-.4q0-1.04-.512-1.584-.497-.56-1.424-.56-.912 0-1.44.56-.512.56-.512 1.584V93zm-10.57 88 3.04-11.68h1.936l3.024 11.68h-1.456l-.768-3.104h-3.536l-.768 3.104zm2.528-4.32h2.944l-.896-3.6a46 46 0 0 1-.4-1.712 22 22 0 0 1-.176-.896q-.032.208-.176.896t-.4 1.696zm12.266 4.32q-.768 0-1.344-.304a2.2 2.2 0 0 1-.896-.864q-.32-.56-.32-1.312v-7.888h-2.96v-1.312h4.4v9.2q0 .544.304.864.303.304.816.304h2.8V181zm4.953 0v-1.312h3.12v-6.176h-2.72V172.2h4.16v7.488h2.96V181zm3.68-10.384q-.528 0-.832-.272t-.304-.736q0-.48.304-.752.304-.288.832-.288c.528 0 .63.096.832.288q.304.272.304.752 0 .464-.304.736t-.832.272m9.418 10.544q-1.056 0-1.856-.4a2.9 2.9 0 0 1-1.216-1.152q-.432-.768-.432-1.808v-2.4q0-1.056.432-1.808a2.9 2.9 0 0 1 1.216-1.152q.8-.4 1.856-.4 1.52 0 2.448.816t.976 2.224h-1.44q-.048-.847-.576-1.296-.512-.464-1.408-.464-.944 0-1.504.544-.56.528-.56 1.52v2.416q0 .992.56 1.536t1.504.544q.896 0 1.408-.464.528-.464.576-1.296h1.44q-.048 1.408-.976 2.224t-2.448.816m9.53 0q-1.041 0-1.824-.416a3 3 0 0 1-1.2-1.168q-.416-.768-.416-1.776v-2.4q0-1.024.416-1.776a3 3 0 0 1 1.2-1.168q.783-.416 1.824-.416t1.808.416q.783.416 1.2 1.168.432.751.432 1.776v1.552h-5.472v.848q0 1.04.528 1.6.528.544 1.504.544.831 0 1.344-.288.512-.304.624-.896h1.44q-.144 1.104-1.088 1.76-.928.64-2.32.64m2.032-5.168v-.592q0-1.04-.528-1.6-.513-.56-1.504-.56-.976 0-1.504.56t-.528 1.6v.464h4.176zM158.207 203v-11.68h3.312q1.599 0 2.496.8.912.8.912 2.224 0 .8-.336 1.392a2.26 2.26 0 0 1-.96.912q-.608.32-1.472.304v-.24q.928-.016 1.6.352.687.368 1.056 1.056.384.688.384 1.632 0 .991-.416 1.728a2.83 2.83 0 0 1-1.184 1.136q-.769.384-1.84.384zm1.408-1.296h1.984q1.008 0 1.584-.528.592-.544.592-1.472 0-.96-.592-1.552-.576-.608-1.584-.608h-1.984zm0-5.408h1.888q.928 0 1.456-.496.543-.496.544-1.344 0-.848-.528-1.344t-1.456-.496h-1.904zm11.498 6.832q-1.056 0-1.824-.4a2.9 2.9 0 0 1-1.2-1.152q-.417-.768-.416-1.808v-2.336q0-1.056.416-1.808a2.9 2.9 0 0 1 1.2-1.152q.768-.4 1.824-.4c1.056 0 1.312.133 1.824.4s.906.651 1.184 1.152q.432.752.432 1.792v2.352q0 1.04-.432 1.808a2.8 2.8 0 0 1-1.184 1.152q-.768.4-1.824.4m0-1.28q.944 0 1.472-.528t.528-1.552v-2.336q0-1.024-.528-1.552t-1.472-.528q-.929 0-1.472.528-.528.528-.528 1.552v2.336q0 1.024.528 1.552.543.528 1.472.528m10.105 1.312q-1.087 0-1.744-.576-.656-.592-.656-1.6l.288.336h-.288V203h-1.44v-11.68h1.44v2.56l-.032 2h.32l-.288.336q0-.992.656-1.584.673-.592 1.744-.592 1.329 0 2.128.88t.8 2.4v2.576q0 1.504-.8 2.384t-2.128.88m-.48-1.248q.912 0 1.44-.544t.528-1.568v-2.4q0-1.024-.528-1.568t-1.44-.544q-.88 0-1.408.56-.512.56-.512 1.552v2.4q0 .992.512 1.552.529.56 1.408.56m86.04 67.216q-.896 0-1.568-.272a2.7 2.7 0 0 1-1.056-.8 2.44 2.44 0 0 1-.464-1.216h1.44q.096.464.512.736.432.272 1.136.272h.672q.848 0 1.264-.336.416-.352.416-.928 0-.56-.384-.88-.368-.336-1.104-.448l-1.184-.192q-1.296-.224-1.936-.8-.624-.592-.624-1.712 0-1.183.752-1.824.751-.656 2.256-.656h.608q1.264 0 2.032.592t.928 1.6h-1.44a1.02 1.02 0 0 0-.48-.656q-.384-.256-1.04-.256h-.608q-.816 0-1.2.304-.368.305-.368.912 0 .544.32.8t1.008.368l1.184.192q1.424.224 2.064.832.656.608.656 1.76 0 1.216-.784 1.92-.768.688-2.336.688zm10.826-.128q-1.137 0-1.776-.608-.624-.608-.624-1.712v-5.168h-2.48V260.2h2.48v-2.48h1.44v2.48h3.52v1.312h-3.52v5.168q0 1.008.96 1.008h2.4V269zm5.61 0v-8.8h1.408v1.68h.336l-.464 1.04q0-1.424.608-2.144.624-.736 1.84-.736 1.392 0 2.208.88.832.864.832 2.352v.528h-1.44v-.4q0-1.04-.512-1.584-.497-.56-1.424-.56-.912 0-1.44.56-.512.56-.512 1.584v5.6zm9.177 0v-1.312h3.12v-6.176h-2.72V260.2h4.16v7.488h2.96V269zm3.68-10.384q-.528 0-.832-.272t-.304-.736q0-.48.304-.752.304-.288.832-.288c.528 0 .63.096.832.288q.304.272.304.752 0 .464-.304.736-.303.272-.832.272M302.097 269v-8.8h1.44v1.68h.304l-.304.336q0-1.04.624-1.6.624-.576 1.728-.576 1.327 0 2.112.816.784.816.784 2.224V269h-1.44v-5.76q0-.943-.512-1.44-.496-.512-1.36-.512-.896 0-1.424.544-.512.544-.512 1.568v5.6zm10.698 2.88v-1.312h2.8q.672 0 .976-.304.32-.304.32-.944v-1.12l.032-1.6h-.288l.272-.24q0 .96-.64 1.52t-1.712.56q-1.36 0-2.144-.88-.784-.895-.784-2.4v-1.856q0-1.504.784-2.384.783-.88 2.144-.88 1.071 0 1.712.56.64.56.64 1.52l-.272-.24h.272v-1.68h1.424v9.12q0 1.183-.736 1.872-.72.688-2.016.688zm2.192-4.688q.895 0 1.408-.56t.512-1.552v-1.68q0-.992-.512-1.552-.513-.56-1.408-.56-.912 0-1.424.544-.496.544-.496 1.568v1.68q0 1.024.496 1.568.512.544 1.424.544"/><path fill="#55E7B2" d="M286.062 181.16q-1.056 0-1.856-.416a3.1 3.1 0 0 1-1.216-1.184q-.432-.752-.432-1.76h1.44q0 .977.544 1.536.56.544 1.536.544.991 0 1.536-.576.544-.576.544-1.504v-.832q0-.992-.544-1.536-.545-.544-1.536-.544h-1.2v-1.44l2.896-2.816h-4.736v-1.312h6.192v1.44l-3.12 3.024v-.176q1.599 0 2.544.912.944.912.944 2.448v.832q0 1.008-.448 1.76a3.07 3.07 0 0 1-1.232 1.184q-.8.416-1.856.416m9.769 0q-1.071 0-1.872-.416a3.07 3.07 0 0 1-1.216-1.2q-.432-.784-.432-1.824v-5.12q0-1.056.432-1.824a2.96 2.96 0 0 1 1.216-1.184q.801-.432 1.872-.432 1.089 0 1.872.432.784.416 1.216 1.184t.432 1.824v5.12q0 1.04-.432 1.824a3.03 3.03 0 0 1-1.232 1.2q-.783.416-1.856.416m0-1.232q.96 0 1.536-.608.592-.624.592-1.6v-5.12q0-.977-.592-1.584-.576-.624-1.536-.624c-.96 0-1.157.208-1.552.624q-.576.607-.576 1.584v5.12q0 .976.576 1.6.592.608 1.552.608m0-3.824a.96.96 0 0 1-.704-.272q-.256-.272-.256-.72 0-.432.256-.688a.96.96 0 0 1 .704-.272q.433 0 .688.272.273.256.272.688 0 .448-.272.72-.255.272-.688.272M263.722 203v-1.472l3.568-3.792q.912-.977 1.328-1.728.416-.768.416-1.472 0-.977-.544-1.536-.528-.56-1.456-.56-1.024 0-1.616.576-.576.576-.576 1.584h-1.44q.031-1.056.48-1.824a3.1 3.1 0 0 1 1.264-1.2q.816-.416 1.888-.416 1.056 0 1.824.416.784.4 1.2 1.152t.416 1.792q0 .992-.528 1.968t-1.728 2.224l-2.88 2.976h5.328V203zm9.594 0v-1.472l3.568-3.792q.911-.977 1.328-1.728.416-.768.416-1.472 0-.977-.544-1.536-.529-.56-1.456-.56-1.025 0-1.616.576-.576.576-.576 1.584h-1.44q.031-1.056.48-1.824a3.1 3.1 0 0 1 1.264-1.2q.816-.416 1.888-.416 1.056 0 1.824.416.783.4 1.2 1.152t.416 1.792q0 .992-.528 1.968t-1.728 2.224l-2.88 2.976h5.328V203zm28.781 88v-8.8h1.44v1.68h.304l-.304.336q0-1.04.624-1.6.624-.576 1.728-.576 1.327 0 2.112.816.784.816.784 2.224V291h-1.44v-5.76q0-.943-.512-1.44-.496-.512-1.36-.512-.896 0-1.424.544-.512.544-.512 1.568v5.6zm12.154.16q-1.392 0-2.192-.704-.8-.72-.8-1.936 0-1.232.8-1.936t2.16-.704h2.72V285q0-.816-.496-1.248-.48-.448-1.376-.448-.784 0-1.312.336-.528.32-.608.88h-1.44a2.54 2.54 0 0 1 1.072-1.808q.927-.672 2.32-.672 1.52 0 2.4.784t.88 2.128V291h-1.408v-1.68h-.24l.24-.24q0 .96-.752 1.52-.737.56-1.968.56m.352-1.136q1.023 0 1.68-.512.656-.512.656-1.312v-1.248h-2.688q-.72 0-1.136.4-.417.4-.416 1.088 0 .736.496 1.168.511.416 1.408.416m6.265.976v-8.8h1.265v1.056h.288l-.224.384q0-.736.384-1.168.4-.432 1.072-.432.735 0 1.136.544t.4 1.536l-.432-.864h.672l-.304.384q0-.736.4-1.168.416-.432 1.088-.432.831 0 1.279.624.465.624.465 1.648V291h-1.328v-6.704q0-.544-.24-.848-.225-.304-.672-.304-.433 0-.688.304-.24.288-.24.832V291h-1.153v-6.704q0-.56-.255-.848-.24-.304-.688-.304t-.672.304q-.224.288-.224.832V291zm13.338.16q-1.04 0-1.824-.416a3 3 0 0 1-1.2-1.168q-.416-.768-.416-1.776v-2.4q0-1.024.416-1.776a3 3 0 0 1 1.2-1.168q.784-.416 1.824-.416t1.808.416q.785.416 1.2 1.168.432.751.432 1.776v1.552h-5.472v.848q0 1.04.528 1.6.528.544 1.504.544.832 0 1.344-.288.513-.304.624-.896h1.44q-.144 1.104-1.088 1.76-.927.64-2.32.64m2.032-5.168v-.592q0-1.04-.528-1.6-.511-.56-1.504-.56-.975 0-1.504.56-.528.56-.528 1.6v.464h4.176z"/><defs><filter id="code_svg__a" width="1263" height="1227" x="-80" y="-549" color-interpolation-filters="sRGB" filterUnits="userSpaceOnUse"><feFlood flood-opacity="0" result="BackgroundImageFix"/><feBlend in="SourceGraphic" in2="BackgroundImageFix" result="shape"/><feGaussianBlur result="effect1_foregroundBlur_3660_1983" stdDeviation="200"/></filter></defs></svg>