<svg xmlns="http://www.w3.org/2000/svg" fill="none" viewBox="0 0 193 42"><g clip-path="url(#field-right-light_svg__a)"><mask id="field-right-light_svg__b" width="193" height="42" x="0" y="0" maskUnits="userSpaceOnUse" style="mask-type:luminance"><path fill="#fff" d="M193 0H0v42h193z"/></mask><g mask="url(#field-right-light_svg__b)"><mask id="field-right-light_svg__c" width="384" height="40" x="-192" y="1" maskUnits="userSpaceOnUse" style="mask-type:alpha"><path fill="#18191B" d="M188 1h-376a4 4 0 0 0-4 4v32a4 4 0 0 0 4 4h376a4 4 0 0 0 4-4V5a4 4 0 0 0-4-4"/></mask><g filter="url(#field-right-light_svg__d)" mask="url(#field-right-light_svg__c)"><path fill="#5F2B20" d="M147.5 59c54.952 0 99.5-4.253 99.5-9.5S202.452 40 147.5 40 48 44.253 48 49.5 92.548 59 147.5 59"/></g><path stroke="url(#field-right-light_svg__e)" d="M188 .5h-376a4.5 4.5 0 0 0-4.5 4.5v32a4.5 4.5 0 0 0 4.5 4.5h376a4.5 4.5 0 0 0 4.5-4.5V5A4.5 4.5 0 0 0 188 .5Z"/><path stroke="url(#field-right-light_svg__f)" d="M188 .5h-376a4.5 4.5 0 0 0-4.5 4.5v32a4.5 4.5 0 0 0 4.5 4.5h376a4.5 4.5 0 0 0 4.5-4.5V5A4.5 4.5 0 0 0 188 .5Z"/></g></g><defs><linearGradient id="field-right-light_svg__e" x1="-166" x2="-192" y1="-2" y2="41" gradientUnits="userSpaceOnUse"><stop stop-color="#574380" stop-opacity="0"/><stop offset="1" stop-color="#574380"/></linearGradient><linearGradient id="field-right-light_svg__f" x1="178.5" x2="192" y1="1" y2="42.5" gradientUnits="userSpaceOnUse"><stop stop-color="#7F4F41" stop-opacity="0"/><stop offset=".604" stop-color="#7F4F41" stop-opacity=".8"/><stop offset="1" stop-color="#C5A49A"/></linearGradient><clipPath id="field-right-light_svg__a"><path fill="#fff" d="M0 0h193v42H0z"/></clipPath><filter id="field-right-light_svg__d" width="287" height="107" x="4" y="-4" color-interpolation-filters="sRGB" filterUnits="userSpaceOnUse"><feFlood flood-opacity="0" result="BackgroundImageFix"/><feBlend in="SourceGraphic" in2="BackgroundImageFix" result="shape"/><feGaussianBlur result="effect1_foregroundBlur_11919_6297" stdDeviation="22"/></filter></defs></svg>