<svg xmlns="http://www.w3.org/2000/svg" fill="none" viewBox="0 0 18 18"><path fill="url(#youtube_svg__a)" d="M17.775 5.4c-.225-1.463-.9-2.475-2.475-2.7-2.475-.45-6.3-.45-6.3-.45s-3.825 0-6.3.45C1.125 2.925.337 3.937.225 5.4 0 6.862 0 9 0 9s0 2.137.225 3.6.9 2.475 2.475 2.7c2.475.45 6.3.45 6.3.45s3.825 0 6.3-.45c1.575-.338 2.25-1.238 2.475-2.7S18 9 18 9s0-2.137-.225-3.6M6.75 12.375v-6.75L12.375 9z" opacity=".8"/><defs><linearGradient id="youtube_svg__a" x1="9" x2="9" y1="2.25" y2="15.75" gradientUnits="userSpaceOnUse"><stop stop-color="#C9CBCF"/><stop offset="1" stop-color="#C9CBCF" stop-opacity=".7"/></linearGradient></defs></svg>