<svg xmlns="http://www.w3.org/2000/svg" fill="none" viewBox="0 0 20 20"><path fill="#303236" fill-rule="evenodd" d="M11.25 7.375a3.875 3.875 0 1 0 0 7.75 3.875 3.875 0 0 0 0-7.75M6.375 11.25a4.875 4.875 0 1 1 9.75 0 4.875 4.875 0 0 1-9.75 0M2.625 6.875a.5.5 0 0 1 .5-.5h1.25a.5.5 0 0 1 0 1h-1.25a.5.5 0 0 1-.5-.5" clip-rule="evenodd"/><path fill="#303236" fill-rule="evenodd" d="M7.678 1.651a.5.5 0 0 1 .447-.276h6.25a.5.5 0 0 1 .447.276l1.112 2.224h2.191c.966 0 1.75.784 1.75 1.75v11.25a1.75 1.75 0 0 1-1.75 1.75H1.875a1.75 1.75 0 0 1-1.75-1.75V5.625c0-.966.784-1.75 1.75-1.75h4.691zm.756.724L7.322 4.599a.5.5 0 0 1-.447.276h-5a.75.75 0 0 0-.75.75v11.25c0 .414.336.75.75.75h16.25a.75.75 0 0 0 .75-.75V5.625a.75.75 0 0 0-.75-.75h-2.5a.5.5 0 0 1-.447-.276l-1.112-2.224z" clip-rule="evenodd"/></svg>