<svg xmlns="http://www.w3.org/2000/svg" fill="none" viewBox="0 0 10 10"><path fill="#fff" fill-rule="evenodd" d="M6.325 6.117c-.351.351-.828.55-1.325.55a1.877 1.877 0 0 1-1.875-1.875V1.875a1.875 1.875 0 1 1 3.75 0v2.917c0 .497-.198.973-.55 1.325m1.302-2.659a.417.417 0 0 1 .712.295v1.041A3.34 3.34 0 0 1 5.51 8.09a.104.104 0 0 0-.088.103v1.394a.417.417 0 1 1-.833 0V8.192A.104.104 0 0 0 4.5 8.09a3.34 3.34 0 0 1-2.828-3.295V3.753a.417.417 0 1 1 .833 0v1.041a2.5 2.5 0 1 0 5 0V3.753c0-.11.044-.217.122-.295" clip-rule="evenodd"/></svg>