<svg xmlns="http://www.w3.org/2000/svg" fill="none" viewBox="0 0 184 42"><g clip-path="url(#bottom-left-light_svg__a)"><mask id="bottom-left-light_svg__b" width="184" height="42" x="0" y="0" maskUnits="userSpaceOnUse" style="mask-type:luminance"><path fill="#fff" d="M184 0H0v42h184z"/></mask><g mask="url(#bottom-left-light_svg__b)"><path fill="url(#bottom-left-light_svg__c)" stroke="url(#bottom-left-light_svg__d)" d="M4.946.5h174.107c1.181 0 2.313.474 3.148 1.318A4.52 4.52 0 0 1 183.505 5v32a4.52 4.52 0 0 1-1.304 3.182 4.43 4.43 0 0 1-3.148 1.318H4.946a4.43 4.43 0 0 1-3.148-1.318A4.53 4.53 0 0 1 .494 37V5c0-1.193.47-2.338 1.304-3.182A4.43 4.43 0 0 1 4.946.5Z"/></g></g><defs><radialGradient id="bottom-left-light_svg__c" cx="0" cy="0" r="1" gradientTransform="matrix(148.266 0 0 41 .494 .5)" gradientUnits="userSpaceOnUse"><stop stop-color="#271715"/><stop offset="1" stop-color="#271715" stop-opacity="0"/></radialGradient><linearGradient id="bottom-left-light_svg__d" x1="19.29" x2="7.186" y1="37" y2="1.079" gradientUnits="userSpaceOnUse"><stop stop-color="#232528"/><stop offset=".706" stop-color="#684239"/><stop offset="1" stop-color="#BF9A8F"/></linearGradient><clipPath id="bottom-left-light_svg__a"><path fill="#fff" d="M0 0h184v42H0z"/></clipPath></defs></svg>