<svg xmlns="http://www.w3.org/2000/svg" fill="none" viewBox="0 0 18 18"><path fill="url(#github_svg__a)" fill-rule="evenodd" d="M9.011.034a8.88 8.88 0 0 0-5.839 2.192A9.26 9.26 0 0 0 .116 7.77a9.4 9.4 0 0 0 1.187 6.247 9.04 9.04 0 0 0 4.862 3.969c.448.085.614-.204.614-.447v-1.566c-2.504.566-3.034-1.232-3.034-1.232a2.46 2.46 0 0 0-1-1.352c-.813-.565.066-.565.066-.565.285.041.557.148.795.313.238.164.437.382.581.637.122.227.287.427.485.588a1.9 1.9 0 0 0 1.418.416c.252-.03.495-.11.716-.235.035-.465.231-.903.553-1.233-2-.232-4.1-1.023-4.1-4.551a3.6 3.6 0 0 1 .922-2.47A3.43 3.43 0 0 1 4.27 3.85s.757-.248 2.476.944a8.33 8.33 0 0 1 4.51 0c1.718-1.192 2.47-.944 2.47-.944.33.771.364 1.642.093 2.437.606.672.937 1.557.923 2.47 0 3.54-2.105 4.315-4.111 4.524.215.221.38.487.487.78.105.292.149.605.126.916v2.527c0 .3.16.532.619.447a9.05 9.05 0 0 0 4.843-3.976 9.4 9.4 0 0 0 1.177-6.238 9.27 9.27 0 0 0-3.047-5.535A8.9 8.9 0 0 0 9.01 0z" clip-rule="evenodd"/><defs><linearGradient id="github_svg__a" x1="9" x2="9" y1="0" y2="18" gradientUnits="userSpaceOnUse"><stop stop-color="#C9CBCF"/><stop offset="1" stop-color="#C9CBCF" stop-opacity=".7"/></linearGradient></defs></svg>