<svg xmlns="http://www.w3.org/2000/svg" fill="none" viewBox="0 0 18 18"><g clip-path="url(#slack_svg__a)" opacity=".8"><path fill="url(#slack_svg__b)" fill-rule="evenodd" d="M5.693 1.373A1.62 1.62 0 0 1 8.46 2.518v1.62h-1.62a1.62 1.62 0 0 1-1.146-2.765M2.518 5.219h4.32a1.62 1.62 0 0 1 0 3.24h-4.32a1.62 1.62 0 0 1 0-3.24M17.1 6.839a1.62 1.62 0 0 0-3.24 0v1.62h1.62a1.62 1.62 0 0 0 1.62-1.62m-4.32-4.32v4.32a1.62 1.62 0 0 1-1.62 1.619 1.62 1.62 0 0 1-1.62-1.62v-4.32a1.62 1.62 0 0 1 3.24 0m-1.62 14.58a1.62 1.62 0 1 0 0-3.24H9.54v1.62a1.62 1.62 0 0 0 1.62 1.62m4.32-4.32h-4.32a1.62 1.62 0 0 1 0-3.24h4.32a1.62 1.62 0 1 1 0 3.24M.9 11.16a1.62 1.62 0 0 0 3.24 0V9.54h-1.62a1.62 1.62 0 0 0-1.62 1.62m4.32 4.32v-4.32a1.62 1.62 0 0 1 3.24 0v4.32a1.62 1.62 0 1 1-3.24 0" clip-rule="evenodd"/></g><defs><linearGradient id="slack_svg__b" x1="8.999" x2="8.999" y1=".898" y2="17.1" gradientUnits="userSpaceOnUse"><stop stop-color="#C9CBCF"/><stop offset="1" stop-color="#C9CBCF" stop-opacity=".7"/></linearGradient><clipPath id="slack_svg__a"><path fill="#fff" d="M0 0h18v18H0z"/></clipPath></defs></svg>