<svg xmlns="http://www.w3.org/2000/svg" fill="none" viewBox="0 0 60 40"><path fill="#478BEB" fill-rule="evenodd" d="m38.383 34.386 2.586 2.586a2 2 0 0 0 2.828 0l15.556-15.556a2 2 0 0 0 0-2.829L43.797 3.031a2 2 0 0 0-2.828 0l-2.586 2.586 12.97 12.97a2 2 0 0 1 0 2.829z" clip-rule="evenodd" opacity=".2"/><path fill="#478BEB" fill-rule="evenodd" d="m30.383 34.386 2.586 2.586a2 2 0 0 0 2.828 0l15.556-15.556a2 2 0 0 0 0-2.829L35.797 3.031a2 2 0 0 0-2.828 0l-2.586 2.586 12.97 12.97a2 2 0 0 1 0 2.829z" clip-rule="evenodd" opacity=".4"/><rect width="26" height="26" x="26.383" y="1.617" fill="#478BEB" opacity=".7" rx="2" transform="rotate(45 26.383 1.617)"/><rect width="26" height="26" x="18.383" y="1.617" fill="#478BEB" rx="2" transform="rotate(45 18.383 1.617)"/><mask id="integration_svg__a" width="36" height="36" x="0" y="2" maskUnits="userSpaceOnUse" style="mask-type:alpha"><rect width="25" height="25" x="18.383" y="2.324" stroke="#000" rx="1.5" transform="rotate(45 18.383 2.324)"/></mask><g filter="url(#integration_svg__b)" mask="url(#integration_svg__a)" style="mix-blend-mode:overlay"><ellipse cx="18.5" cy="2" fill="#B3B3B3" rx="14.5" ry="15"/></g><mask id="integration_svg__c" width="60" height="36" x="0" y="2" maskUnits="userSpaceOnUse" style="mask-type:alpha"><path fill="#42A9F3" fill-rule="evenodd" d="m32.97 36.972-2.585-2.586-2.586 2.586a2 2 0 0 1-2.829 0l-2.585-2.586-2.586 2.586a2 2 0 0 1-2.829 0L1.414 21.416a2 2 0 0 1 0-2.829L16.97 3.031a2 2 0 0 1 2.829 0l2.585 2.586L24.97 3.03a2 2 0 0 1 2.829 0l2.585 2.586L32.97 3.03a2 2 0 0 1 2.829 0l2.586 2.586L40.97 3.03a2 2 0 0 1 2.829 0l15.556 15.556a2 2 0 0 1 0 2.829L43.799 36.972a2 2 0 0 1-2.829 0l-2.585-2.586-2.586 2.586a2 2 0 0 1-2.829 0" clip-rule="evenodd"/></mask><g filter="url(#integration_svg__d)" mask="url(#integration_svg__c)" opacity=".6" style="mix-blend-mode:plus-lighter"><ellipse cx="10" cy="-8.5" fill="#149CB7" rx="32" ry="22.5"/></g><defs><filter id="integration_svg__b" width="69" height="70" x="-16" y="-33" color-interpolation-filters="sRGB" filterUnits="userSpaceOnUse"><feFlood flood-opacity="0" result="BackgroundImageFix"/><feBlend in="SourceGraphic" in2="BackgroundImageFix" result="shape"/><feGaussianBlur result="effect1_foregroundBlur_3162_4365" stdDeviation="10"/></filter><filter id="integration_svg__d" width="92" height="73" x="-36" y="-45" color-interpolation-filters="sRGB" filterUnits="userSpaceOnUse"><feFlood flood-opacity="0" result="BackgroundImageFix"/><feBlend in="SourceGraphic" in2="BackgroundImageFix" result="shape"/><feGaussianBlur result="effect1_foregroundBlur_3162_4365" stdDeviation="7"/></filter></defs></svg>