<svg xmlns="http://www.w3.org/2000/svg" fill="none" viewBox="0 0 22 22"><g fill="#fff" clip-path="url(#call-camera_svg__a)"><path d="M2.904 5.895a.23.23 0 0 0-.256-.047 1.38 1.38 0 0 0-.812 1.255v8.25a1.375 1.375 0 0 0 1.375 1.375h9.972a.229.229 0 0 0 .163-.391zM19.926 6.832l-2.75 1.569a1.33 1.33 0 0 0-.676 1.145v3.37a1.33 1.33 0 0 0 .676 1.146l2.75 1.568A1.375 1.375 0 0 0 22 14.485V7.977a1.375 1.375 0 0 0-2.074-1.145"/><path d="M15.65 14.354a.23.23 0 0 1-.067-.162V7.103a1.375 1.375 0 0 0-1.375-1.375H7.12a.23.23 0 0 1-.162-.067L1.565.268A.917.917 0 0 0 .268 1.564l20.167 20.167a.917.917 0 0 0 1.296-1.296z"/></g><defs><clipPath id="call-camera_svg__a"><path fill="#fff" d="M0 0h22v22H0z"/></clipPath></defs></svg>