<svg xmlns="http://www.w3.org/2000/svg" fill="none" viewBox="0 0 40 40"><path fill="#478BEB" d="M20 11.25c2.758 0 5-2.243 5-5s-2.242-5-5-5-5 2.243-5 5 2.242 5 5 5" opacity=".6"/><path fill="#478BEB" d="M33.75 11.25c2.758 0 5-2.243 5-5s-2.242-5-5-5-5 2.243-5 5 2.242 5 5 5" opacity=".2"/><path fill="#478BEB" d="M33.75 15c-2.758 0-5 2.243-5 5s2.242 5 5 5 5-2.243 5-5-2.242-5-5-5M6.25 28.75c-2.758 0-5 2.243-5 5s2.242 5 5 5 5-2.243 5-5-2.242-5-5-5" opacity=".6"/><path fill="#478BEB" d="M33.75 28.75c-2.323 0-4.264 1.6-4.823 3.75h-4.104a4.99 4.99 0 0 0-3.573-3.573v-4.104C23.4 24.263 25 22.323 25 20c0-2.757-2.242-5-5-5-2.323 0-4.264 1.6-4.822 3.75h-4.106A4.99 4.99 0 0 0 7.5 15.178v-4.106c2.15-.558 3.75-2.5 3.75-4.822 0-2.757-2.242-5-5-5s-5 2.243-5 5c0 2.323 1.6 4.264 3.75 4.823v4.105c-2.15.558-3.75 2.5-3.75 4.822 0 2.757 2.242 5 5 5 2.323 0 4.264-1.6 4.823-3.75h4.105a4.99 4.99 0 0 0 3.572 3.573v4.104c-2.15.56-3.75 2.5-3.75 4.823 0 2.757 2.242 5 5 5 2.323 0 4.264-1.6 4.823-3.75h4.104c.56 2.15 2.5 3.75 4.823 3.75 2.758 0 5-2.243 5-5s-2.242-5-5-5"/><mask id="tasks_svg__a" width="38" height="38" x="1" y="1" maskUnits="userSpaceOnUse" style="mask-type:alpha"><path stroke="#000" d="M28.928 33h.386l.098-.374c.504-1.94 2.252-3.376 4.338-3.376 2.481 0 4.5 2.02 4.5 4.5s-2.019 4.5-4.5 4.5c-2.087 0-3.834-1.437-4.338-3.376l-.098-.374h-4.878l-.098.374c-.504 1.94-2.251 3.376-4.338 3.376-2.481 0-4.5-2.02-4.5-4.5 0-2.086 1.436-3.835 3.376-4.339l.374-.097v-4.878l-.374-.097a4.49 4.49 0 0 1-3.215-3.215l-.097-.374h-4.878l-.098.374c-.503 1.94-2.252 3.376-4.338 3.376-2.481 0-4.5-2.02-4.5-4.5 0-2.086 1.437-3.835 3.376-4.339l.374-.097v-4.878l-.374-.097C3.186 10.085 1.75 8.336 1.75 6.25c0-2.48 2.019-4.5 4.5-4.5s4.5 2.02 4.5 4.5c0 .656.152 1.27.327 1.81.088.27.184.528.271.764l.002.005c.089.238.168.45.23.645.134.42.148.646.104.775-.024.072-.103.221-.56.34l-.374.097v4.878l.374.097a.8.8 0 0 1 .275.108.6.6 0 0 1-.029.114 3 3 0 0 1-.167.366l-.083.157a7 7 0 0 0-.438.949c-.152.44-.24.958-.094 1.52l.098.375h4.878l.098-.374c.504-1.94 2.251-3.376 4.338-3.376 2.481 0 4.5 2.02 4.5 4.5 0 2.086-1.436 3.835-3.376 4.339l-.374.097v4.878l.374.097a4.49 4.49 0 0 1 3.215 3.215l.097.374h4.491Zm-17.51-17.21q-.002 0-.01-.014.014.012.01.013Z"/></mask><g filter="url(#tasks_svg__b)" mask="url(#tasks_svg__a)" style="mix-blend-mode:overlay"><path fill="#B3B3B3" d="M1.078-8 9.77-5.666.691 28.137-8 25.802z"/></g><mask id="tasks_svg__c" width="38" height="38" x="1" y="1" maskUnits="userSpaceOnUse" style="mask-type:alpha"><path fill="#0B0D10" fill-rule="evenodd" d="M20 11.25c2.758 0 5-2.243 5-5s-2.242-5-5-5-5 2.243-5 5 2.242 5 5 5m13.75 0c2.758 0 5-2.243 5-5s-2.242-5-5-5-5 2.243-5 5 2.242 5 5 5m-5 8.75c0-2.757 2.242-5 5-5s5 2.243 5 5-2.242 5-5 5-5-2.243-5-5m-22.5 8.75c-2.758 0-5 2.243-5 5s2.242 5 5 5 5-2.243 5-5-2.242-5-5-5m22.678 3.75c.558-2.15 2.499-3.75 4.822-3.75 2.758 0 5 2.243 5 5s-2.242 5-5 5c-2.323 0-4.264-1.6-4.823-3.75h-4.104c-.56 2.15-2.5 3.75-4.823 3.75-2.758 0-5-2.243-5-5 0-2.323 1.6-4.264 3.75-4.823v-4.104a4.99 4.99 0 0 1-3.572-3.573h-4.106C10.515 23.4 8.574 25 6.25 25c-2.758 0-5-2.243-5-5 0-2.323 1.6-4.264 3.75-4.822v-4.106c-2.15-.558-3.75-2.5-3.75-4.822 0-2.757 2.242-5 5-5s5 2.243 5 5c0 2.323-1.6 4.264-3.75 4.823v4.105a4.99 4.99 0 0 1 3.573 3.572h4.105C15.736 16.6 17.677 15 20 15c2.758 0 5 2.243 5 5 0 2.323-1.6 4.264-3.75 4.823v4.104a4.99 4.99 0 0 1 3.573 3.573z" clip-rule="evenodd"/></mask><g filter="url(#tasks_svg__d)" mask="url(#tasks_svg__c)" opacity=".6" style="mix-blend-mode:plus-lighter"><circle cx="-14.5" cy="-8.5" r="25.5" fill="#149CB7"/></g><defs><filter id="tasks_svg__b" width="25.773" height="44.133" x="-12" y="-12" color-interpolation-filters="sRGB" filterUnits="userSpaceOnUse"><feFlood flood-opacity="0" result="BackgroundImageFix"/><feBlend in="SourceGraphic" in2="BackgroundImageFix" result="shape"/><feGaussianBlur result="effect1_foregroundBlur_3162_4295" stdDeviation="2"/></filter><filter id="tasks_svg__d" width="79" height="79" x="-54" y="-48" color-interpolation-filters="sRGB" filterUnits="userSpaceOnUse"><feFlood flood-opacity="0" result="BackgroundImageFix"/><feBlend in="SourceGraphic" in2="BackgroundImageFix" result="shape"/><feGaussianBlur result="effect1_foregroundBlur_3162_4295" stdDeviation="7"/></filter></defs></svg>