<svg xmlns="http://www.w3.org/2000/svg" fill="none" viewBox="0 0 14 15"><path fill="#fff" d="M10.063 4.875a2.19 2.19 0 0 1-2.188-2.187A2.19 2.19 0 0 1 10.063.5a2.19 2.19 0 0 1 2.187 2.188 2.19 2.19 0 0 1-2.187 2.187M10.062 5.75c-.836 0-1.61.267-2.247.713.03.197.06.395.06.6 0 .857-.283 1.644-.75 2.292.33.224.632.484.906.77h5.531A.44.44 0 0 0 14 9.688a3.94 3.94 0 0 0-3.938-3.938M7.438 14.5h-7A.44.44 0 0 1 0 14.063a3.94 3.94 0 0 1 3.938-3.938 3.94 3.94 0 0 1 3.937 3.938.44.44 0 0 1-.437.437M3.938 9.25A2.19 2.19 0 0 1 1.75 7.063a2.19 2.19 0 0 1 2.188-2.188 2.19 2.19 0 0 1 2.187 2.188A2.19 2.19 0 0 1 3.938 9.25"/></svg>