<svg xmlns="http://www.w3.org/2000/svg" fill="none" viewBox="0 0 18 18"><g clip-path="url(#linkedin_svg__a)" opacity=".8"><path fill="url(#linkedin_svg__b)" d="M16.423.898H1.573c-.405 0-.675.27-.675.675v14.85c0 .405.27.675.675.675h14.85c.405 0 .675-.27.675-.675V1.573c0-.405-.27-.675-.675-.675M5.691 14.736H3.328V6.973h2.43v7.763zM4.476 5.893a1.426 1.426 0 0 1-1.418-1.417c0-.743.608-1.418 1.418-1.418.742 0 1.417.608 1.417 1.418s-.607 1.417-1.417 1.417m10.26 8.843h-2.43v-3.78c0-.878 0-2.025-1.215-2.025-1.283 0-1.418.945-1.418 1.957v3.848h-2.43V6.973h2.295v1.08c.338-.607 1.08-1.215 2.295-1.215 2.43 0 2.903 1.62 2.903 3.713z"/></g><defs><linearGradient id="linkedin_svg__b" x1="8.998" x2="8.998" y1=".898" y2="17.098" gradientUnits="userSpaceOnUse"><stop stop-color="#C9CBCF"/><stop offset="1" stop-color="#C9CBCF" stop-opacity=".7"/></linearGradient><clipPath id="linkedin_svg__a"><path fill="#fff" d="M0 0h18v18H0z"/></clipPath></defs></svg>