<svg xmlns="http://www.w3.org/2000/svg" fill="none" viewBox="0 0 173 41"><mask id="slack-btn-underlay_svg__a" width="173" height="41" x="0" y="0" maskUnits="userSpaceOnUse" style="mask-type:alpha"><path fill="#0B0C0F" d="M0 20.5C0 9.178 9.178 0 20.5 0h132C163.822 0 173 9.178 173 20.5S163.822 41 152.5 41h-132C9.178 41 0 31.822 0 20.5"/></mask><g filter="url(#slack-btn-underlay_svg__b)" mask="url(#slack-btn-underlay_svg__a)"><ellipse cx="-30" cy="20" fill="#5F2B20" rx="45" ry="42"/></g><mask id="slack-btn-underlay_svg__c" width="173" height="41" x="0" y="0" maskUnits="userSpaceOnUse" style="mask-type:alpha"><path stroke="#fff" d="M20.5.5h132c11.046 0 20 8.954 20 20s-8.954 20-20 20h-132c-11.046 0-20-8.954-20-20s8.954-20 20-20Z"/></mask><g mask="url(#slack-btn-underlay_svg__c)"><g filter="url(#slack-btn-underlay_svg__d)" style="mix-blend-mode:plus-lighter"><ellipse cx="-2" cy="21" fill="#E26136" rx="65" ry="9"/></g><g filter="url(#slack-btn-underlay_svg__e)" opacity=".45" style="mix-blend-mode:plus-lighter"><ellipse cx="13.05" cy="24.619" fill="#fff" rx="27" ry="11.078" transform="rotate(17.312 13.05 24.619)"/></g></g><defs><filter id="slack-btn-underlay_svg__b" width="178" height="172" x="-119" y="-66" color-interpolation-filters="sRGB" filterUnits="userSpaceOnUse"><feFlood flood-opacity="0" result="BackgroundImageFix"/><feBlend in="SourceGraphic" in2="BackgroundImageFix" result="shape"/><feGaussianBlur result="effect1_foregroundBlur_9400_16255" stdDeviation="22"/></filter><filter id="slack-btn-underlay_svg__d" width="208.4" height="96.4" x="-106.2" y="-27.2" color-interpolation-filters="sRGB" filterUnits="userSpaceOnUse"><feFlood flood-opacity="0" result="BackgroundImageFix"/><feBlend in="SourceGraphic" in2="BackgroundImageFix" result="shape"/><feGaussianBlur result="effect1_foregroundBlur_9400_16255" stdDeviation="19.6"/></filter><filter id="slack-btn-underlay_svg__e" width="84.177" height="58.766" x="-29.038" y="-4.764" color-interpolation-filters="sRGB" filterUnits="userSpaceOnUse"><feFlood flood-opacity="0" result="BackgroundImageFix"/><feBlend in="SourceGraphic" in2="BackgroundImageFix" result="shape"/><feGaussianBlur result="effect1_foregroundBlur_9400_16255" stdDeviation="8.05"/></filter></defs></svg>